<?xml version="1.0" standalone="no"?>
<!DOCTYPE svg PUBLIC "-//W3C//DTD SVG 1.1//EN" "http://www.w3.org/Graphics/SVG/1.1/DTD/svg11.dtd">
<svg version="1.1" xmlns="http://www.w3.org/2000/svg" viewBox="0 0 191.8981135958552 222.33635046926025" width="191.8981135958552" height="222.33635046926025" filter="invert(93%) hue-rotate(180deg)"><!-- svg-source:excalidraw --><metadata></metadata><defs><style class="style-fonts">
      </style></defs><g stroke-linecap="round" transform="translate(10.000000000000455 47.11098054470364) rotate(0 20 20)"><path d="M40 20 C40 21.16, 39.9 22.33, 39.7 23.47 C39.5 24.61, 39.19 25.75, 38.79 26.84 C38.4 27.93, 37.9 29, 37.32 30 C36.74 31, 36.07 31.97, 35.32 32.86 C34.58 33.74, 33.74 34.58, 32.86 35.32 C31.97 36.07, 31 36.74, 30 37.32 C29 37.9, 27.93 38.4, 26.84 38.79 C25.75 39.19, 24.61 39.5, 23.47 39.7 C22.33 39.9, 21.16 40, 20 40 C18.84 40, 17.67 39.9, 16.53 39.7 C15.39 39.5, 14.25 39.19, 13.16 38.79 C12.07 38.4, 11 37.9, 10 37.32 C9 36.74, 8.03 36.07, 7.14 35.32 C6.26 34.58, 5.42 33.74, 4.68 32.86 C3.93 31.97, 3.26 31, 2.68 30 C2.1 29, 1.6 27.93, 1.21 26.84 C0.81 25.75, 0.5 24.61, 0.3 23.47 C0.1 22.33, 0 21.16, 0 20 C0 18.84, 0.1 17.67, 0.3 16.53 C0.5 15.39, 0.81 14.25, 1.21 13.16 C1.6 12.07, 2.1 11, 2.68 10 C3.26 9, 3.93 8.03, 4.68 7.14 C5.42 6.26, 6.26 5.42, 7.14 4.68 C8.03 3.93, 9 3.26, 10 2.68 C11 2.1, 12.07 1.6, 13.16 1.21 C14.25 0.81, 15.39 0.5, 16.53 0.3 C17.67 0.1, 18.84 0, 20 0 C21.16 0, 22.33 0.1, 23.47 0.3 C24.61 0.5, 25.75 0.81, 26.84 1.21 C27.93 1.6, 29 2.1, 30 2.68 C31 3.26, 31.97 3.93, 32.86 4.68 C33.74 5.42, 34.58 6.26, 35.32 7.14 C36.07 8.03, 36.74 9, 37.32 10 C37.9 11, 38.4 12.07, 38.79 13.16 C39.19 14.25, 39.5 15.39, 39.7 16.53 C39.9 17.67, 39.95 19.42, 40 20 C40.05 20.58, 40.05 19.42, 40 20" stroke="none" stroke-width="0" fill="#e03131"></path><path d="M40 20 C40 21.16, 39.9 22.33, 39.7 23.47 C39.5 24.61, 39.19 25.75, 38.79 26.84 C38.4 27.93, 37.9 29, 37.32 30 C36.74 31, 36.07 31.97, 35.32 32.86 C34.58 33.74, 33.74 34.58, 32.86 35.32 C31.97 36.07, 31 36.74, 30 37.32 C29 37.9, 27.93 38.4, 26.84 38.79 C25.75 39.19, 24.61 39.5, 23.47 39.7 C22.33 39.9, 21.16 40, 20 40 C18.84 40, 17.67 39.9, 16.53 39.7 C15.39 39.5, 14.25 39.19, 13.16 38.79 C12.07 38.4, 11 37.9, 10 37.32 C9 36.74, 8.03 36.07, 7.14 35.32 C6.26 34.58, 5.42 33.74, 4.68 32.86 C3.93 31.97, 3.26 31, 2.68 30 C2.1 29, 1.6 27.93, 1.21 26.84 C0.81 25.75, 0.5 24.61, 0.3 23.47 C0.1 22.33, 0 21.16, 0 20 C0 18.84, 0.1 17.67, 0.3 16.53 C0.5 15.39, 0.81 14.25, 1.21 13.16 C1.6 12.07, 2.1 11, 2.68 10 C3.26 9, 3.93 8.03, 4.68 7.14 C5.42 6.26, 6.26 5.42, 7.14 4.68 C8.03 3.93, 9 3.26, 10 2.68 C11 2.1, 12.07 1.6, 13.16 1.21 C14.25 0.81, 15.39 0.5, 16.53 0.3 C17.67 0.1, 18.84 0, 20 0 C21.16 0, 22.33 0.1, 23.47 0.3 C24.61 0.5, 25.75 0.81, 26.84 1.21 C27.93 1.6, 29 2.1, 30 2.68 C31 3.26, 31.97 3.93, 32.86 4.68 C33.74 5.42, 34.58 6.26, 35.32 7.14 C36.07 8.03, 36.74 9, 37.32 10 C37.9 11, 38.4 12.07, 38.79 13.16 C39.19 14.25, 39.5 15.39, 39.7 16.53 C39.9 17.67, 39.95 19.42, 40 20 C40.05 20.58, 40.05 19.42, 40 20" stroke="#e03131" stroke-width="4" fill="none"></path></g><g stroke-linecap="round" transform="translate(90.00000000000045 167.11098054470364) rotate(0 15.715262999116476 15.715239649051227)"><path d="M31.43 15.72 C31.43 16.62, 31.35 17.55, 31.19 18.44 C31.03 19.34, 30.79 20.24, 30.48 21.09 C30.17 21.94, 29.78 22.79, 29.33 23.57 C28.87 24.36, 28.34 25.12, 27.75 25.82 C27.17 26.51, 26.51 27.17, 25.82 27.75 C25.12 28.34, 24.36 28.87, 23.57 29.33 C22.79 29.78, 21.94 30.17, 21.09 30.48 C20.24 30.79, 19.34 31.03, 18.44 31.19 C17.55 31.35, 16.62 31.43, 15.72 31.43 C14.81 31.43, 13.88 31.35, 12.99 31.19 C12.09 31.03, 11.2 30.79, 10.34 30.48 C9.49 30.17, 8.65 29.78, 7.86 29.33 C7.07 28.87, 6.31 28.34, 5.61 27.75 C4.92 27.17, 4.26 26.51, 3.68 25.82 C3.09 25.12, 2.56 24.36, 2.11 23.57 C1.65 22.79, 1.26 21.94, 0.95 21.09 C0.64 20.24, 0.4 19.34, 0.24 18.44 C0.08 17.55, 0 16.62, 0 15.72 C0 14.81, 0.08 13.88, 0.24 12.99 C0.4 12.09, 0.64 11.2, 0.95 10.34 C1.26 9.49, 1.65 8.65, 2.11 7.86 C2.56 7.07, 3.09 6.31, 3.68 5.61 C4.26 4.92, 4.92 4.26, 5.61 3.68 C6.31 3.09, 7.07 2.56, 7.86 2.11 C8.65 1.65, 9.49 1.26, 10.34 0.95 C11.2 0.64, 12.09 0.4, 12.99 0.24 C13.88 0.08, 14.81 0, 15.72 0 C16.62 0, 17.55 0.08, 18.44 0.24 C19.34 0.4, 20.24 0.64, 21.09 0.95 C21.94 1.26, 22.79 1.65, 23.57 2.11 C24.36 2.56, 25.12 3.09, 25.82 3.68 C26.51 4.26, 27.17 4.92, 27.75 5.61 C28.34 6.31, 28.87 7.07, 29.33 7.86 C29.78 8.65, 30.17 9.49, 30.48 10.34 C30.79 11.2, 31.03 12.09, 31.19 12.99 C31.35 13.88, 31.39 15.26, 31.43 15.72 C31.47 16.17, 31.47 15.26, 31.43 15.72" stroke="none" stroke-width="0" fill="#6741d9"></path><path d="M31.43 15.72 C31.43 16.62, 31.35 17.55, 31.19 18.44 C31.03 19.34, 30.79 20.24, 30.48 21.09 C30.17 21.94, 29.78 22.79, 29.33 23.57 C28.87 24.36, 28.34 25.12, 27.75 25.82 C27.17 26.51, 26.51 27.17, 25.82 27.75 C25.12 28.34, 24.36 28.87, 23.57 29.33 C22.79 29.78, 21.94 30.17, 21.09 30.48 C20.24 30.79, 19.34 31.03, 18.44 31.19 C17.55 31.35, 16.62 31.43, 15.72 31.43 C14.81 31.43, 13.88 31.35, 12.99 31.19 C12.09 31.03, 11.2 30.79, 10.34 30.48 C9.49 30.17, 8.65 29.78, 7.86 29.33 C7.07 28.87, 6.31 28.34, 5.61 27.75 C4.92 27.17, 4.26 26.51, 3.68 25.82 C3.09 25.12, 2.56 24.36, 2.11 23.57 C1.65 22.79, 1.26 21.94, 0.95 21.09 C0.64 20.24, 0.4 19.34, 0.24 18.44 C0.08 17.55, 0 16.62, 0 15.72 C0 14.81, 0.08 13.88, 0.24 12.99 C0.4 12.09, 0.64 11.2, 0.95 10.34 C1.26 9.49, 1.65 8.65, 2.11 7.86 C2.56 7.07, 3.09 6.31, 3.68 5.61 C4.26 4.92, 4.92 4.26, 5.61 3.68 C6.31 3.09, 7.07 2.56, 7.86 2.11 C8.65 1.65, 9.49 1.26, 10.34 0.95 C11.2 0.64, 12.09 0.4, 12.99 0.24 C13.88 0.08, 14.81 0, 15.72 0 C16.62 0, 17.55 0.08, 18.44 0.24 C19.34 0.4, 20.24 0.64, 21.09 0.95 C21.94 1.26, 22.79 1.65, 23.57 2.11 C24.36 2.56, 25.12 3.09, 25.82 3.68 C26.51 4.26, 27.17 4.92, 27.75 5.61 C28.34 6.31, 28.87 7.07, 29.33 7.86 C29.78 8.65, 30.17 9.49, 30.48 10.34 C30.79 11.2, 31.03 12.09, 31.19 12.99 C31.35 13.88, 31.39 15.26, 31.43 15.72 C31.47 16.17, 31.47 15.26, 31.43 15.72" stroke="#6741d9" stroke-width="4" fill="none"></path></g><g stroke-linecap="round"><g transform="translate(101.20270202618076 196.8077969073558) rotate(0 -31.52354564255893 -26.626698352249605)"><path d="M0.78 -0.51 C-3.33 1.36, -14.29 22.19, -25.11 11.55 C-35.93 0.91, -58.03 -51.49, -64.15 -64.34 M-0.27 -1.83 C-4.49 0.16, -15.8 23.43, -26.06 12.72 C-36.32 2.02, -55.41 -53.21, -61.83 -66.08" stroke="#1971c2" stroke-width="4" fill="none"></path></g></g><mask></mask><g stroke-linecap="round" transform="translate(107.5515588422968 34.45625731768388) rotate(0 10 10)"><path d="M20 10 C20 10.58, 19.95 11.17, 19.85 11.74 C19.75 12.31, 19.59 12.88, 19.4 13.42 C19.2 13.96, 18.95 14.5, 18.66 15 C18.37 15.5, 18.03 15.98, 17.66 16.43 C17.29 16.87, 16.87 17.29, 16.43 17.66 C15.98 18.03, 15.5 18.37, 15 18.66 C14.5 18.95, 13.96 19.2, 13.42 19.4 C12.88 19.59, 12.31 19.75, 11.74 19.85 C11.17 19.95, 10.58 20, 10 20 C9.42 20, 8.83 19.95, 8.26 19.85 C7.69 19.75, 7.12 19.59, 6.58 19.4 C6.04 19.2, 5.5 18.95, 5 18.66 C4.5 18.37, 4.02 18.03, 3.57 17.66 C3.13 17.29, 2.71 16.87, 2.34 16.43 C1.97 15.98, 1.63 15.5, 1.34 15 C1.05 14.5, 0.8 13.96, 0.6 13.42 C0.41 12.88, 0.25 12.31, 0.15 11.74 C0.05 11.17, 0 10.58, 0 10 C0 9.42, 0.05 8.83, 0.15 8.26 C0.25 7.69, 0.41 7.12, 0.6 6.58 C0.8 6.04, 1.05 5.5, 1.34 5 C1.63 4.5, 1.97 4.02, 2.34 3.57 C2.71 3.13, 3.13 2.71, 3.57 2.34 C4.02 1.97, 4.5 1.63, 5 1.34 C5.5 1.05, 6.04 0.8, 6.58 0.6 C7.12 0.41, 7.69 0.25, 8.26 0.15 C8.83 0.05, 9.42 0, 10 0 C10.58 0, 11.17 0.05, 11.74 0.15 C12.31 0.25, 12.88 0.41, 13.42 0.6 C13.96 0.8, 14.5 1.05, 15 1.34 C15.5 1.63, 15.98 1.97, 16.43 2.34 C16.87 2.71, 17.29 3.13, 17.66 3.57 C18.03 4.02, 18.37 4.5, 18.66 5 C18.95 5.5, 19.2 6.04, 19.4 6.58 C19.59 7.12, 19.75 7.69, 19.85 8.26 C19.95 8.83, 19.97 9.71, 20 10 C20.03 10.29, 20.03 9.71, 20 10" stroke="none" stroke-width="0" fill="#e8590c"></path><path d="M20 10 C20 10.58, 19.95 11.17, 19.85 11.74 C19.75 12.31, 19.59 12.88, 19.4 13.42 C19.2 13.96, 18.95 14.5, 18.66 15 C18.37 15.5, 18.03 15.98, 17.66 16.43 C17.29 16.87, 16.87 17.29, 16.43 17.66 C15.98 18.03, 15.5 18.37, 15 18.66 C14.5 18.95, 13.96 19.2, 13.42 19.4 C12.88 19.59, 12.31 19.75, 11.74 19.85 C11.17 19.95, 10.58 20, 10 20 C9.42 20, 8.83 19.95, 8.26 19.85 C7.69 19.75, 7.12 19.59, 6.58 19.4 C6.04 19.2, 5.5 18.95, 5 18.66 C4.5 18.37, 4.02 18.03, 3.57 17.66 C3.13 17.29, 2.71 16.87, 2.34 16.43 C1.97 15.98, 1.63 15.5, 1.34 15 C1.05 14.5, 0.8 13.96, 0.6 13.42 C0.41 12.88, 0.25 12.31, 0.15 11.74 C0.05 11.17, 0 10.58, 0 10 C0 9.42, 0.05 8.83, 0.15 8.26 C0.25 7.69, 0.41 7.12, 0.6 6.58 C0.8 6.04, 1.05 5.5, 1.34 5 C1.63 4.5, 1.97 4.02, 2.34 3.57 C2.71 3.13, 3.13 2.71, 3.57 2.34 C4.02 1.97, 4.5 1.63, 5 1.34 C5.5 1.05, 6.04 0.8, 6.58 0.6 C7.12 0.41, 7.69 0.25, 8.26 0.15 C8.83 0.05, 9.42 0, 10 0 C10.58 0, 11.17 0.05, 11.74 0.15 C12.31 0.25, 12.88 0.41, 13.42 0.6 C13.96 0.8, 14.5 1.05, 15 1.34 C15.5 1.63, 15.98 1.97, 16.43 2.34 C16.87 2.71, 17.29 3.13, 17.66 3.57 C18.03 4.02, 18.37 4.5, 18.66 5 C18.95 5.5, 19.2 6.04, 19.4 6.58 C19.59 7.12, 19.75 7.69, 19.85 8.26 C19.95 8.83, 19.97 9.71, 20 10 C20.03 10.29, 20.03 9.71, 20 10" stroke="#e8590c" stroke-width="4" fill="none"></path></g><g stroke-linecap="round"><g transform="translate(48.70056808489653 188.53733060239205) rotate(271.3749651470096 0.08572536934616437 3.2747091090191702)" fill-rule="evenodd"><path d="M0 0 L3.19 3.22 L-3.02 6.55 L0 0" stroke="none" stroke-width="0" fill="#e8d18c" fill-rule="evenodd"></path><path d="M0 0 C1.21 1.22, 2.42 2.44, 3.19 3.22 M0 0 C1.02 1.03, 2.03 2.06, 3.19 3.22 M3.19 3.22 C1.13 4.33, -0.93 5.43, -3.02 6.55 M3.19 3.22 C1.17 4.31, -0.85 5.39, -3.02 6.55 M-3.02 6.55 C-2.14 4.65, -1.27 2.75, 0 0 M-3.02 6.55 C-2.05 4.46, -1.09 2.37, 0 0 M0 0 C0 0, 0 0, 0 0 M0 0 C0 0, 0 0, 0 0" stroke="transparent" stroke-width="1" fill="none"></path></g></g><mask></mask><g stroke-linecap="round"><g transform="translate(50.30882030026305 192.53721380826465) rotate(271.3749651470096 0 0.7988461418127599)" fill-rule="evenodd"><path d="M0 0 L0.83 0.88 L-0.83 1.6" stroke="none" stroke-width="0" fill="#495057" fill-rule="evenodd"></path><path d="M0 0 C0.21 0.22, 0.42 0.45, 0.83 0.88 M0 0 C0.23 0.25, 0.47 0.5, 0.83 0.88 M0.83 0.88 C0.35 1.09, -0.12 1.29, -0.83 1.6 M0.83 0.88 C0.44 1.05, 0.06 1.21, -0.83 1.6 M-0.83 1.6 C-0.51 0.98, -0.19 0.36, 0 0 M-0.83 1.6 C-0.66 1.27, -0.49 0.95, 0 0" stroke="transparent" stroke-width="1" fill="none"></path></g></g><mask></mask><g stroke-linecap="round"><g transform="translate(12.508001302774574 186.63299123687744) rotate(271.3749651470096 19.211742695076055 -14.46415600792011)" fill-rule="evenodd"><path d="M0 0 L3.09 3.02 L38.42 -28.6 L35.23 -31.95 L0 0" stroke="none" stroke-width="0" fill="#fab005" fill-rule="evenodd"></path><path d="M0 0 C1.07 1.05, 2.15 2.1, 3.09 3.02 M0 0 C0.75 0.73, 1.5 1.47, 3.09 3.02 M3.09 3.02 C16.19 -8.71, 29.3 -20.44, 38.42 -28.6 M3.09 3.02 C13.41 -6.22, 23.74 -15.46, 38.42 -28.6 M38.42 -28.6 C37.39 -29.69, 36.35 -30.78, 35.23 -31.95 M38.42 -28.6 C37.34 -29.74, 36.26 -30.87, 35.23 -31.95 M35.23 -31.95 C21.71 -19.69, 8.19 -7.42, 0 0 M35.23 -31.95 C22.22 -20.14, 9.2 -8.34, 0 0 M0 0 C0 0, 0 0, 0 0 M0 0 C0 0, 0 0, 0 0" stroke="#000000" stroke-width="1" fill="none"></path></g></g><mask></mask><g stroke-linecap="round" transform="translate(11.232139803916652 148.43333973470118) rotate(320.6489112446082 1.9882350834263889 1.8992174629978535)"><path d="M0 0 L3.98 0 L3.98 3.8 L0 3.8" stroke="none" stroke-width="0" fill="#f87762"></path><path d="M0 0 C1.21 0, 2.41 0, 3.98 0 M0 0 C1.07 0, 2.13 0, 3.98 0 M3.98 0 C3.98 1.15, 3.98 2.29, 3.98 3.8 M3.98 0 C3.98 1.52, 3.98 3.04, 3.98 3.8 M3.98 3.8 C2.7 3.8, 1.42 3.8, 0 3.8 M3.98 3.8 C2.52 3.8, 1.06 3.8, 0 3.8 M0 3.8 C0 2.61, 0 1.43, 0 0 M0 3.8 C0 2.28, 0 0.77, 0 0" stroke="transparent" stroke-width="1" fill="none"></path></g><g stroke-linecap="round"><g transform="translate(13.35386499412607 153.06808443184224) rotate(271.3749651470096 2.056361124489058 -0.11684300826874505)" fill-rule="evenodd"><path d="M0 0 L0.5 0.79 L1.1 1.45 L1.96 2.17 L2.51 2.37 L4.58 0.56 L3.27 -0.38 L2.19 -1.82 L1.58 -2.6 L-0.47 -0.74" stroke="none" stroke-width="0" fill="#ced4da" fill-rule="evenodd"></path><path d="M0 0 C0.1 0.16, 0.21 0.33, 0.5 0.79 M0 0 C0.17 0.27, 0.35 0.55, 0.5 0.79 M0.5 0.79 C0.68 0.98, 0.85 1.16, 1.1 1.45 M0.5 0.79 C0.73 1.03, 0.95 1.28, 1.1 1.45 M1.1 1.45 C1.3 1.61, 1.5 1.78, 1.96 2.17 M1.1 1.45 C1.4 1.7, 1.7 1.95, 1.96 2.17 M1.96 2.17 C2.1 2.22, 2.25 2.28, 2.51 2.37 M1.96 2.17 C2.13 2.23, 2.31 2.3, 2.51 2.37 M2.51 2.37 C3.05 1.9, 3.59 1.43, 4.58 0.56 M2.51 2.37 C3.28 1.69, 4.06 1.02, 4.58 0.56 M4.58 0.56 C4.24 0.32, 3.9 0.07, 3.27 -0.38 M4.58 0.56 C4.31 0.37, 4.05 0.18, 3.27 -0.38 M3.27 -0.38 C2.89 -0.89, 2.51 -1.4, 2.19 -1.82 M3.27 -0.38 C2.98 -0.77, 2.68 -1.16, 2.19 -1.82 M2.19 -1.82 C1.95 -2.13, 1.71 -2.44, 1.58 -2.6 M2.19 -1.82 C1.99 -2.08, 1.79 -2.34, 1.58 -2.6 M1.58 -2.6 C1.03 -2.1, 0.47 -1.6, -0.47 -0.74 M1.58 -2.6 C1.13 -2.2, 0.68 -1.79, -0.47 -0.74 M-0.47 -0.74 C-0.35 -0.56, -0.24 -0.38, 0 0 M-0.47 -0.74 C-0.3 -0.47, -0.12 -0.2, 0 0" stroke="#000000" stroke-width="1" fill="none"></path></g></g><mask></mask><g stroke-linecap="round"><g transform="translate(51.29842442137533 149.54458773252662) rotate(271.3749651470096 -20.305645772185926 21.486206572894332)"><path d="M0 0 C0.86 0.93, 1.73 1.86, 3.19 3.42 M0 0 C0.8 0.86, 1.61 1.73, 3.19 3.42 M3.19 3.42 C-5.04 10.84, -13.28 18.26, -37.31 39.9 M3.19 3.42 C-9.41 14.78, -22.01 26.13, -37.31 39.9 M-37.31 39.9 C-38.79 40.61, -40.28 41.31, -43.8 42.97 M-37.31 39.9 C-38.95 40.68, -40.6 41.46, -43.8 42.97 M-43.8 42.97 C-43.01 41.37, -42.22 39.76, -40.61 36.48 M-43.8 42.97 C-42.65 40.64, -41.51 38.31, -40.61 36.48 M-40.61 36.48 C-25.46 22.87, -10.32 9.27, 0 0 M-40.61 36.48 C-26.13 23.48, -11.66 10.47, 0 0" stroke="#000000" stroke-width="1" fill="none"></path></g></g><mask></mask><g stroke-linecap="round" transform="translate(43.084687998207755 58.59925356232753) rotate(346.11269940413655 43.92912551591962 59.866575996830704)"><path d="M21.96 0 C38.92 -1.42, 58.85 -2.59, 65.89 0 C79.74 2, 91.36 9.14, 87.86 21.96 C90.26 40.59, 87.9 53.21, 87.86 97.77 C90.42 110.13, 82.1 118.35, 65.89 119.73 C51.06 116.99, 42.5 119.23, 21.96 119.73 C6.09 119.85, 0.62 112.57, 0 97.77 C-2.03 73.81, 2.91 52.08, 0 21.96 C1.33 4.04, 6.92 3.2, 21.96 0" stroke="none" stroke-width="0" fill="#edf2f9"></path><path d="M21.96 0 C36.06 -1.84, 55.08 1.17, 65.89 0 M21.96 0 C38.17 0.41, 54.34 0.44, 65.89 0 M65.89 0 C79.15 -1.48, 88.93 6.92, 87.86 21.96 M65.89 0 C81.93 -0.36, 89.84 6.26, 87.86 21.96 M87.86 21.96 C87.69 50.27, 88.61 82.68, 87.86 97.77 M87.86 21.96 C87.65 48.76, 88.55 74.71, 87.86 97.77 M87.86 97.77 C89.3 113.04, 81.57 119.17, 65.89 119.73 M87.86 97.77 C88.01 112.84, 81.78 119.43, 65.89 119.73 M65.89 119.73 C55.72 119.86, 49.19 118.66, 21.96 119.73 M65.89 119.73 C51.04 119.51, 38.14 119.8, 21.96 119.73 M21.96 119.73 C6.74 120.21, -1.05 113.14, 0 97.77 M21.96 119.73 C8.8 122.01, 1.7 112.95, 0 97.77 M0 97.77 C0.94 75.49, -1.26 53.11, 0 21.96 M0 97.77 C0.32 81.3, 1.09 66.51, 0 21.96 M0 21.96 C-0.56 6.3, 5.61 0.21, 21.96 0 M0 21.96 C-1.84 5.47, 5.69 -0.43, 21.96 0" stroke="#000000" stroke-width="4" fill="none"></path></g><g stroke-linecap="round" transform="translate(31.80973698583921 61.46043158267776) rotate(346.11269940413655 44.08625141738912 10.116351583729681)"><path d="M5.06 0 C25.79 0, 46.53 0, 83.11 0 C86.49 0, 88.17 1.69, 88.17 5.06 C88.17 8.46, 88.17 11.87, 88.17 15.17 C88.17 18.55, 86.49 20.23, 83.11 20.23 C52.72 20.23, 22.32 20.23, 5.06 20.23 C1.69 20.23, 0 18.55, 0 15.17 C0 12.03, 0 8.89, 0 5.06 C0 1.69, 1.69 0, 5.06 0" stroke="none" stroke-width="0" fill="#f48284"></path><path d="M5.06 0 C28.45 0, 51.84 0, 83.11 0 M5.06 0 C29.47 0, 53.87 0, 83.11 0 M83.11 0 C86.49 0, 88.17 1.69, 88.17 5.06 M83.11 0 C86.49 0, 88.17 1.69, 88.17 5.06 M88.17 5.06 C88.17 7.89, 88.17 10.73, 88.17 15.17 M88.17 5.06 C88.17 7.61, 88.17 10.16, 88.17 15.17 M88.17 15.17 C88.17 18.55, 86.49 20.23, 83.11 20.23 M88.17 15.17 C88.17 18.55, 86.49 20.23, 83.11 20.23 M83.11 20.23 C56.53 20.23, 29.95 20.23, 5.06 20.23 M83.11 20.23 C53.62 20.23, 24.13 20.23, 5.06 20.23 M5.06 20.23 C1.69 20.23, 0 18.55, 0 15.17 M5.06 20.23 C1.69 20.23, 0 18.55, 0 15.17 M0 15.17 C0 12.9, 0 10.62, 0 5.06 M0 15.17 C0 11.59, 0 8.01, 0 5.06 M0 5.06 C0 1.69, 1.69 0, 5.06 0 M0 5.06 C0 1.69, 1.69 0, 5.06 0" stroke="#000" stroke-width="4" fill="none"></path></g><g stroke-linecap="round"><g transform="translate(38.72843173001411 96.44090399442314) rotate(346.11269940413655 42.393604917875564 -0.16218111332466378)"><path d="M0.7 0.8 C15.05 0.61, 70.94 -0.08, 84.97 -0.17 M-0.39 0.18 C13.91 0.72, 70.02 1.78, 84.12 1.45" stroke="#000" stroke-width="4" fill="none"></path></g></g><mask></mask><g stroke-linecap="round"><g transform="translate(42.66293049178739 110.70842958448912) rotate(346.11269940413655 42.67453180473376 0.1370344893163633)"><path d="M0.19 0.15 C14.31 0.16, 71.24 0.72, 85.46 0.84 M-1.18 -0.81 C12.74 -1.23, 70.24 -0.93, 84.58 -0.99" stroke="#000" stroke-width="4" fill="none"></path></g></g><mask></mask><g stroke-linecap="round"><g transform="translate(45.58880987248813 126.482274213283) rotate(346.11269940413655 43.43106438131895 -0.0706571691176805)"><path d="M0.11 0.56 C14.59 0.61, 72.73 0.72, 87.05 0.45 M-1.28 -0.19 C13.04 -0.5, 71.24 -1.36, 86.2 -1.36" stroke="#000" stroke-width="4" fill="none"></path></g></g><mask></mask><g stroke-linecap="round"><g transform="translate(51.181687136719574 140.84685411330105) rotate(346.11269940413655 43.43106438131895 -0.0706571691176805)"><path d="M0.19 0.59 C14.51 0.33, 71.48 -0.87, 86.03 -1.03 M-1.17 -0.14 C13.51 -0.33, 73.6 -0.12, 88.31 0.04" stroke="#000" stroke-width="4" fill="none"></path></g></g><mask></mask><g stroke-linecap="round"><g transform="translate(54.690376104721054 158.51471105717116) rotate(346.11269940413655 43.43106438131895 -0.0706571691176805)"><path d="M-0.83 -0.89 C13.72 -1.05, 72.77 -0.48, 87.5 -0.38 M0.94 1.26 C15.37 1.23, 72.52 1.09, 86.89 1.03" stroke="#000" stroke-width="4" fill="none"></path></g></g><mask></mask><g stroke-linecap="round"><g transform="translate(64.71009849349412 87.58472151602876) rotate(346.11269940413655 -0.24774887982516702 48.441776948816596)"><path d="M0.64 -0.24 C0.82 16.02, 0.25 80.6, 0.23 96.69 M-0.48 -1.42 C-0.32 15.11, -0.47 81.67, -0.33 98.13" stroke="#000" stroke-width="4" fill="none"></path></g></g><mask></mask><g stroke-linecap="round"><g transform="translate(46.72269780420538 59.81371477830743) rotate(346.11269940413655 0.10542925666345582 6.5910877900965374)"><path d="M0.33 -0.09 C0.4 2.09, 0.61 10.7, 0.68 12.93 M-0.16 -0.61 C-0.15 1.65, 0.36 11.08, 0.5 13.5" stroke="#000" stroke-width="4" fill="none"></path></g></g><mask></mask><g stroke-linecap="round"><g transform="translate(59.6307151675951 56.35347448928678) rotate(346.11269940413655 0.10542925666368319 6.5910877900965374)"><path d="M0.47 -0.25 C0.54 1.97, 0.81 11.05, 0.75 13.27 M0.05 0.8 C0.07 2.86, 0.66 10.21, 0.6 12.35" stroke="#000" stroke-width="4" fill="none"></path></g></g><mask></mask><g stroke-linecap="round"><g transform="translate(72.23859591552082 53.6438373118757) rotate(346.11269940413655 0.10542925666345582 6.5910877900965374)"><path d="M0.54 0.09 C0.48 2.32, 0.24 10.89, 0.1 13.1 M0.16 -0.34 C-0.03 1.99, -0.48 11.64, -0.38 13.76" stroke="#000" stroke-width="4" fill="none"></path></g></g><mask></mask><g stroke-linecap="round"><g transform="translate(84.85077850895732 50.44040147021133) rotate(346.11269940413655 0.10542925666368319 6.5910877900965374)"><path d="M-0.11 -0.08 C-0.25 2.13, -0.38 11.1, -0.31 13.35 M-0.83 -0.6 C-0.86 1.44, 0.52 10.28, 0.65 12.48" stroke="#000" stroke-width="4" fill="none"></path></g></g><mask></mask><g stroke-linecap="round"><g transform="translate(96.6737944165875 46.89301671419361) rotate(346.11269940413655 0.10542925666368319 6.5910877900965374)"><path d="M-0.52 0.17 C-0.46 2.43, 0.17 11.35, 0.29 13.48 M0.21 -0.21 C0.22 1.89, -0.04 10.4, -0.1 12.66" stroke="#000" stroke-width="4" fill="none"></path></g></g><mask></mask><g stroke-linecap="round"><g transform="translate(134.09248780208281 127.41373757099387) rotate(43.92022158979407 22.18787680334526 -16.61826691189316)" fill-rule="evenodd"><path d="M0 0 C0.91 -4.33, -1.21 -21.39, 5.43 -25.99 C12.08 -30.6, 33.36 -31.89, 39.85 -27.62 C46.34 -23.35, 42.78 -5.04, 44.38 -0.36 C45.98 4.32, 49.15 4.88, 49.45 0.45 C49.75 -3.97, 48.5 -21.21, 46.19 -26.9 C43.88 -32.59, 42.34 -32.78, 35.59 -33.69 C28.84 -34.59, 12.2 -34.85, 5.71 -32.33 C-0.78 -29.81, -1.55 -23.92, -3.35 -18.57 C-5.15 -13.21, -4.78 -3.25, -5.07 -0.18" stroke="none" stroke-width="0" fill="#868e96" fill-rule="evenodd"></path><path d="M0 0 C0.91 -4.33, -1.21 -21.39, 5.43 -25.99 C12.08 -30.6, 33.36 -31.89, 39.85 -27.62 C46.34 -23.35, 42.78 -5.04, 44.38 -0.36 C45.98 4.32, 49.15 4.88, 49.45 0.45 C49.75 -3.97, 48.5 -21.21, 46.19 -26.9 C43.88 -32.59, 42.34 -32.78, 35.59 -33.69 C28.84 -34.59, 12.2 -34.85, 5.71 -32.33 C-0.78 -29.81, -1.55 -23.92, -3.35 -18.57 C-5.15 -13.21, -4.78 -3.25, -5.07 -0.18 M0 0 C0.91 -4.33, -1.21 -21.39, 5.43 -25.99 C12.08 -30.6, 33.36 -31.89, 39.85 -27.62 C46.34 -23.35, 42.78 -5.04, 44.38 -0.36 C45.98 4.32, 49.15 4.88, 49.45 0.45 C49.75 -3.97, 48.5 -21.21, 46.19 -26.9 C43.88 -32.59, 42.34 -32.78, 35.59 -33.69 C28.84 -34.59, 12.2 -34.85, 5.71 -32.33 C-0.78 -29.81, -1.55 -23.92, -3.35 -18.57 C-5.15 -13.21, -4.78 -3.25, -5.07 -0.18" stroke="#000000" stroke-width="1" fill="none"></path></g></g><mask></mask><g stroke-linecap="round" transform="translate(116.41342004633816 97.47491125231267) rotate(43.92022158979407 8.21788461195024 12.559408557886115)"><path d="M4.11 0 C7.04 0, 9.98 0, 12.33 0 C15.07 0, 16.44 1.37, 16.44 4.11 C16.44 8.1, 16.44 12.08, 16.44 21.01 C16.44 23.75, 15.07 25.12, 12.33 25.12 C10.59 25.12, 8.85 25.12, 4.11 25.12 C1.37 25.12, 0 23.75, 0 21.01 C0 16.29, 0 11.57, 0 4.11 C0 1.37, 1.37 0, 4.11 0" stroke="none" stroke-width="0" fill="#868e96"></path><path d="M4.11 0 C6.04 0, 7.96 0, 12.33 0 M4.11 0 C6.04 0, 7.97 0, 12.33 0 M12.33 0 C15.07 0, 16.44 1.37, 16.44 4.11 M12.33 0 C15.07 0, 16.44 1.37, 16.44 4.11 M16.44 4.11 C16.44 8.91, 16.44 13.7, 16.44 21.01 M16.44 4.11 C16.44 10.73, 16.44 17.36, 16.44 21.01 M16.44 21.01 C16.44 23.75, 15.07 25.12, 12.33 25.12 M16.44 21.01 C16.44 23.75, 15.07 25.12, 12.33 25.12 M12.33 25.12 C9.7 25.12, 7.08 25.12, 4.11 25.12 M12.33 25.12 C9.74 25.12, 7.15 25.12, 4.11 25.12 M4.11 25.12 C1.37 25.12, 0 23.75, 0 21.01 M4.11 25.12 C1.37 25.12, 0 23.75, 0 21.01 M0 21.01 C0 14.6, 0 8.2, 0 4.11 M0 21.01 C0 15.48, 0 9.95, 0 4.11 M0 4.11 C0 1.37, 1.37 0, 4.11 0 M0 4.11 C0 1.37, 1.37 0, 4.11 0" stroke="#000000" stroke-width="1" fill="none"></path></g><g stroke-linecap="round" transform="translate(150.82531632801692 131.2594045060302) rotate(43.92022158979407 8.21788461195024 12.559408557886115)"><path d="M4.11 0 C6.69 0, 9.26 0, 12.33 0 C15.07 0, 16.44 1.37, 16.44 4.11 C16.44 8.73, 16.44 13.35, 16.44 21.01 C16.44 23.75, 15.07 25.12, 12.33 25.12 C10.63 25.12, 8.92 25.12, 4.11 25.12 C1.37 25.12, 0 23.75, 0 21.01 C0 15.65, 0 10.29, 0 4.11 C0 1.37, 1.37 0, 4.11 0" stroke="none" stroke-width="0" fill="#868e96"></path><path d="M4.11 0 C6.14 0, 8.17 0, 12.33 0 M4.11 0 C6.09 0, 8.07 0, 12.33 0 M12.33 0 C15.07 0, 16.44 1.37, 16.44 4.11 M12.33 0 C15.07 0, 16.44 1.37, 16.44 4.11 M16.44 4.11 C16.44 8.58, 16.44 13.04, 16.44 21.01 M16.44 4.11 C16.44 7.58, 16.44 11.05, 16.44 21.01 M16.44 21.01 C16.44 23.75, 15.07 25.12, 12.33 25.12 M16.44 21.01 C16.44 23.75, 15.07 25.12, 12.33 25.12 M12.33 25.12 C9.95 25.12, 7.57 25.12, 4.11 25.12 M12.33 25.12 C9.1 25.12, 5.87 25.12, 4.11 25.12 M4.11 25.12 C1.37 25.12, 0 23.75, 0 21.01 M4.11 25.12 C1.37 25.12, 0 23.75, 0 21.01 M0 21.01 C0 14.44, 0 7.87, 0 4.11 M0 21.01 C0 17.35, 0 13.7, 0 4.11 M0 4.11 C0 1.37, 1.37 0, 4.11 0 M0 4.11 C0 1.37, 1.37 0, 4.11 0" stroke="#000000" stroke-width="1" fill="none"></path></g><g stroke-linecap="round" transform="translate(29.99190658424277 123.1485836577794) rotate(0 10 10)"><path d="M20 10 C20 10.58, 19.95 11.17, 19.85 11.74 C19.75 12.31, 19.59 12.88, 19.4 13.42 C19.2 13.96, 18.95 14.5, 18.66 15 C18.37 15.5, 18.03 15.98, 17.66 16.43 C17.29 16.87, 16.87 17.29, 16.43 17.66 C15.98 18.03, 15.5 18.37, 15 18.66 C14.5 18.95, 13.96 19.2, 13.42 19.4 C12.88 19.59, 12.31 19.75, 11.74 19.85 C11.17 19.95, 10.58 20, 10 20 C9.42 20, 8.83 19.95, 8.26 19.85 C7.69 19.75, 7.12 19.59, 6.58 19.4 C6.04 19.2, 5.5 18.95, 5 18.66 C4.5 18.37, 4.02 18.03, 3.57 17.66 C3.13 17.29, 2.71 16.87, 2.34 16.43 C1.97 15.98, 1.63 15.5, 1.34 15 C1.05 14.5, 0.8 13.96, 0.6 13.42 C0.41 12.88, 0.25 12.31, 0.15 11.74 C0.05 11.17, 0 10.58, 0 10 C0 9.42, 0.05 8.83, 0.15 8.26 C0.25 7.69, 0.41 7.12, 0.6 6.58 C0.8 6.04, 1.05 5.5, 1.34 5 C1.63 4.5, 1.97 4.02, 2.34 3.57 C2.71 3.13, 3.13 2.71, 3.57 2.34 C4.02 1.97, 4.5 1.63, 5 1.34 C5.5 1.05, 6.04 0.8, 6.58 0.6 C7.12 0.41, 7.69 0.25, 8.26 0.15 C8.83 0.05, 9.42 0, 10 0 C10.58 0, 11.17 0.05, 11.74 0.15 C12.31 0.25, 12.88 0.41, 13.42 0.6 C13.96 0.8, 14.5 1.05, 15 1.34 C15.5 1.63, 15.98 1.97, 16.43 2.34 C16.87 2.71, 17.29 3.13, 17.66 3.57 C18.03 4.02, 18.37 4.5, 18.66 5 C18.95 5.5, 19.2 6.04, 19.4 6.58 C19.59 7.12, 19.75 7.69, 19.85 8.26 C19.95 8.83, 19.97 9.71, 20 10 C20.03 10.29, 20.03 9.71, 20 10" stroke="none" stroke-width="0" fill="#099268"></path><path d="M20 10 C20 10.58, 19.95 11.17, 19.85 11.74 C19.75 12.31, 19.59 12.88, 19.4 13.42 C19.2 13.96, 18.95 14.5, 18.66 15 C18.37 15.5, 18.03 15.98, 17.66 16.43 C17.29 16.87, 16.87 17.29, 16.43 17.66 C15.98 18.03, 15.5 18.37, 15 18.66 C14.5 18.95, 13.96 19.2, 13.42 19.4 C12.88 19.59, 12.31 19.75, 11.74 19.85 C11.17 19.95, 10.58 20, 10 20 C9.42 20, 8.83 19.95, 8.26 19.85 C7.69 19.75, 7.12 19.59, 6.58 19.4 C6.04 19.2, 5.5 18.95, 5 18.66 C4.5 18.37, 4.02 18.03, 3.57 17.66 C3.13 17.29, 2.71 16.87, 2.34 16.43 C1.97 15.98, 1.63 15.5, 1.34 15 C1.05 14.5, 0.8 13.96, 0.6 13.42 C0.41 12.88, 0.25 12.31, 0.15 11.74 C0.05 11.17, 0 10.58, 0 10 C0 9.42, 0.05 8.83, 0.15 8.26 C0.25 7.69, 0.41 7.12, 0.6 6.58 C0.8 6.04, 1.05 5.5, 1.34 5 C1.63 4.5, 1.97 4.02, 2.34 3.57 C2.71 3.13, 3.13 2.71, 3.57 2.34 C4.02 1.97, 4.5 1.63, 5 1.34 C5.5 1.05, 6.04 0.8, 6.58 0.6 C7.12 0.41, 7.69 0.25, 8.26 0.15 C8.83 0.05, 9.42 0, 10 0 C10.58 0, 11.17 0.05, 11.74 0.15 C12.31 0.25, 12.88 0.41, 13.42 0.6 C13.96 0.8, 14.5 1.05, 15 1.34 C15.5 1.63, 15.98 1.97, 16.43 2.34 C16.87 2.71, 17.29 3.13, 17.66 3.57 C18.03 4.02, 18.37 4.5, 18.66 5 C18.95 5.5, 19.2 6.04, 19.4 6.58 C19.59 7.12, 19.75 7.69, 19.85 8.26 C19.95 8.83, 19.97 9.71, 20 10 C20.03 10.29, 20.03 9.71, 20 10" stroke="#099268" stroke-width="4" fill="none"></path></g><g stroke-linecap="round"><g transform="translate(120.17808597328622 49.289777557278455) rotate(0 -6.4271522014560105 66.71979388428775)"><path d="M0.29 -0.51 C2.58 5.1, 18.07 17.78, 13.68 34.11 C9.28 50.45, -21.3 80.8, -26.07 97.48 C-30.85 114.17, -16.7 128.23, -14.99 134.22 M-1.01 -1.83 C1.13 3.38, 17.12 15.49, 12.84 32.23 C8.56 48.96, -22.14 81.92, -26.71 98.56 C-31.28 115.21, -16.71 126.2, -14.58 132.08" stroke="#e8590c" stroke-width="4" fill="none"></path></g></g><mask></mask><g stroke-linecap="round"><g transform="translate(41.216150513159846 125.19116157027514) rotate(0 -0.30607265726212063 -30.299336738739754)"><path d="M0.72 -0.54 C2.61 -7.79, 13.9 -34.43, 11.87 -44.34 C9.84 -54.25, -7.61 -57.38, -11.48 -59.97 M-0.35 1.79 C1.41 -5.21, 13.34 -32.31, 11.37 -42.94 C9.4 -53.57, -8.44 -58.79, -12.16 -61.99" stroke="#099268" stroke-width="4" fill="none"></path></g></g><mask></mask><g stroke-linecap="round"><g transform="translate(36.93136681214537 49.289777557278455) rotate(0 36.42042795796647 -19.587453373916958)"><path d="M0.94 0.53 C6.61 -5.92, 22.3 -37.89, 34.1 -39.24 C45.89 -40.6, 65.08 -12.77, 71.71 -7.59 M-0.03 -0.24 C5.51 -6.44, 21.04 -36.21, 33.38 -37.74 C45.72 -39.27, 67.74 -14.57, 74.02 -9.42" stroke="#e03131" stroke-width="4" fill="none"></path></g></g><mask></mask></svg>