<?xml version="1.0" standalone="no"?>
<!DOCTYPE svg PUBLIC "-//W3C//DTD SVG 1.1//EN" "http://www.w3.org/Graphics/SVG/1.1/DTD/svg11.dtd">
<svg version="1.1" xmlns="http://www.w3.org/2000/svg" viewBox="0 0 158.26677514128187 221.75114001818815" width="158.26677514128187" height="221.75114001818815" filter="invert(93%) hue-rotate(180deg)"><!-- svg-source:excalidraw --><metadata></metadata><defs><style class="style-fonts">
      </style></defs><g stroke-linecap="round" transform="translate(10 147.75114001818815) rotate(0 34.5 32)"><path d="M69 32 C69 33.67, 68.86 35.36, 68.58 37.01 C68.29 38.65, 67.87 40.3, 67.31 41.89 C66.76 43.48, 66.06 45.04, 65.24 46.53 C64.42 48.01, 63.47 49.46, 62.41 50.81 C61.35 52.16, 60.17 53.45, 58.9 54.63 C57.62 55.81, 56.23 56.91, 54.78 57.89 C53.32 58.87, 51.77 59.75, 50.16 60.51 C48.56 61.27, 46.87 61.92, 45.16 62.43 C43.45 62.95, 41.67 63.34, 39.9 63.61 C38.12 63.87, 36.3 64, 34.5 64 C32.7 64, 30.88 63.87, 29.1 63.61 C27.33 63.34, 25.55 62.95, 23.84 62.43 C22.13 61.92, 20.44 61.27, 18.84 60.51 C17.23 59.75, 15.68 58.87, 14.22 57.89 C12.77 56.91, 11.38 55.81, 10.1 54.63 C8.83 53.45, 7.65 52.16, 6.59 50.81 C5.53 49.46, 4.58 48.01, 3.76 46.53 C2.94 45.04, 2.24 43.48, 1.69 41.89 C1.13 40.3, 0.71 38.65, 0.42 37.01 C0.14 35.36, 0 33.67, 0 32 C0 30.33, 0.14 28.64, 0.42 26.99 C0.71 25.35, 1.13 23.7, 1.69 22.11 C2.24 20.52, 2.94 18.96, 3.76 17.47 C4.58 15.99, 5.53 14.54, 6.59 13.19 C7.65 11.84, 8.83 10.55, 10.1 9.37 C11.38 8.19, 12.77 7.09, 14.22 6.11 C15.68 5.13, 17.23 4.25, 18.84 3.49 C20.44 2.73, 22.13 2.08, 23.84 1.57 C25.55 1.05, 27.33 0.66, 29.1 0.39 C30.88 0.13, 32.7 0, 34.5 0 C36.3 0, 38.12 0.13, 39.9 0.39 C41.67 0.66, 43.45 1.05, 45.16 1.57 C46.87 2.08, 48.56 2.73, 50.16 3.49 C51.77 4.25, 53.32 5.13, 54.78 6.11 C56.23 7.09, 57.62 8.19, 58.9 9.37 C60.17 10.55, 61.35 11.84, 62.41 13.19 C63.47 14.54, 64.42 15.99, 65.24 17.47 C66.06 18.96, 66.76 20.52, 67.31 22.11 C67.87 23.7, 68.29 25.35, 68.58 26.99 C68.86 28.64, 68.93 31.17, 69 32 C69.07 32.83, 69.07 31.17, 69 32" stroke="none" stroke-width="0" fill="#fcc2d7"></path><path d="M69 32 C69 33.67, 68.86 35.36, 68.58 37.01 C68.29 38.65, 67.87 40.3, 67.31 41.89 C66.76 43.48, 66.06 45.04, 65.24 46.53 C64.42 48.01, 63.47 49.46, 62.41 50.81 C61.35 52.16, 60.17 53.45, 58.9 54.63 C57.62 55.81, 56.23 56.91, 54.78 57.89 C53.32 58.87, 51.77 59.75, 50.16 60.51 C48.56 61.27, 46.87 61.92, 45.16 62.43 C43.45 62.95, 41.67 63.34, 39.9 63.61 C38.12 63.87, 36.3 64, 34.5 64 C32.7 64, 30.88 63.87, 29.1 63.61 C27.33 63.34, 25.55 62.95, 23.84 62.43 C22.13 61.92, 20.44 61.27, 18.84 60.51 C17.23 59.75, 15.68 58.87, 14.22 57.89 C12.77 56.91, 11.38 55.81, 10.1 54.63 C8.83 53.45, 7.65 52.16, 6.59 50.81 C5.53 49.46, 4.58 48.01, 3.76 46.53 C2.94 45.04, 2.24 43.48, 1.69 41.89 C1.13 40.3, 0.71 38.65, 0.42 37.01 C0.14 35.36, 0 33.67, 0 32 C0 30.33, 0.14 28.64, 0.42 26.99 C0.71 25.35, 1.13 23.7, 1.69 22.11 C2.24 20.52, 2.94 18.96, 3.76 17.47 C4.58 15.99, 5.53 14.54, 6.59 13.19 C7.65 11.84, 8.83 10.55, 10.1 9.37 C11.38 8.19, 12.77 7.09, 14.22 6.11 C15.68 5.13, 17.23 4.25, 18.84 3.49 C20.44 2.73, 22.13 2.08, 23.84 1.57 C25.55 1.05, 27.33 0.66, 29.1 0.39 C30.88 0.13, 32.7 0, 34.5 0 C36.3 0, 38.12 0.13, 39.9 0.39 C41.67 0.66, 43.45 1.05, 45.16 1.57 C46.87 2.08, 48.56 2.73, 50.16 3.49 C51.77 4.25, 53.32 5.13, 54.78 6.11 C56.23 7.09, 57.62 8.19, 58.9 9.37 C60.17 10.55, 61.35 11.84, 62.41 13.19 C63.47 14.54, 64.42 15.99, 65.24 17.47 C66.06 18.96, 66.76 20.52, 67.31 22.11 C67.87 23.7, 68.29 25.35, 68.58 26.99 C68.86 28.64, 68.93 31.17, 69 32 C69.07 32.83, 69.07 31.17, 69 32" stroke="#e03131" stroke-width="4" fill="none"></path></g><g transform="translate(25.382159799064084 162.12372302021868) rotate(0 19.22265625 17.5)"><text x="19.22265625" y="24.668" font-family="Excalifont, Xiaolai, sans-serif, Segoe UI Emoji" font-size="28px" fill="#e03131" text-anchor="middle" style="white-space: pre;" direction="ltr" dominant-baseline="alphabetic">­ЪДа</text></g><g stroke-linecap="round"><g transform="translate(68.69563195515434 157.04884072918765) rotate(0 24.484341526840694 -21.729827711874947)"><path d="M0 0 C8.16 -7.24, 40.81 -36.22, 48.97 -43.46 M0 0 C8.16 -7.24, 40.81 -36.22, 48.97 -43.46" stroke="#e03131" stroke-width="4" fill="none"></path></g></g><mask></mask><g stroke-linecap="round"><g transform="translate(68.69567865528506 40.7483060394398) rotate(0 22.03587701907145 22.954059965759484)"><path d="M0 0 C7.35 7.65, 36.73 38.26, 44.07 45.91 M0 0 C7.35 7.65, 36.73 38.26, 44.07 45.91" stroke="#e03131" stroke-width="4" fill="none"></path></g></g><mask></mask><g stroke-linecap="round" transform="translate(40.60539772096877 10) rotate(0 22.5 21)"><path d="M45 21 C45 22.22, 44.88 23.45, 44.66 24.65 C44.43 25.84, 44.09 27.04, 43.64 28.18 C43.2 29.32, 42.64 30.45, 41.99 31.5 C41.33 32.55, 40.57 33.57, 39.74 34.5 C38.9 35.43, 37.96 36.31, 36.96 37.09 C35.97 37.87, 34.88 38.58, 33.75 39.19 C32.62 39.79, 31.42 40.32, 30.2 40.73 C28.97 41.15, 27.69 41.47, 26.41 41.68 C25.12 41.89, 23.8 42, 22.5 42 C21.2 42, 19.88 41.89, 18.59 41.68 C17.31 41.47, 16.03 41.15, 14.8 40.73 C13.58 40.32, 12.38 39.79, 11.25 39.19 C10.12 38.58, 9.03 37.87, 8.04 37.09 C7.04 36.31, 6.1 35.43, 5.26 34.5 C4.43 33.57, 3.67 32.55, 3.01 31.5 C2.36 30.45, 1.8 29.32, 1.36 28.18 C0.91 27.04, 0.57 25.84, 0.34 24.65 C0.12 23.45, 0 22.22, 0 21 C0 19.78, 0.12 18.55, 0.34 17.35 C0.57 16.16, 0.91 14.96, 1.36 13.82 C1.8 12.68, 2.36 11.55, 3.01 10.5 C3.67 9.45, 4.43 8.43, 5.26 7.5 C6.1 6.57, 7.04 5.69, 8.04 4.91 C9.03 4.13, 10.12 3.42, 11.25 2.81 C12.38 2.21, 13.58 1.68, 14.8 1.27 C16.03 0.85, 17.31 0.53, 18.59 0.32 C19.88 0.11, 21.2 0, 22.5 0 C23.8 0, 25.12 0.11, 26.41 0.32 C27.69 0.53, 28.97 0.85, 30.2 1.27 C31.42 1.68, 32.62 2.21, 33.75 2.81 C34.88 3.42, 35.97 4.13, 36.96 4.91 C37.96 5.69, 38.9 6.57, 39.74 7.5 C40.57 8.43, 41.33 9.45, 41.99 10.5 C42.64 11.55, 43.2 12.68, 43.64 13.82 C44.09 14.96, 44.43 16.16, 44.66 17.35 C44.88 18.55, 44.94 20.39, 45 21 C45.06 21.61, 45.06 20.39, 45 21" stroke="none" stroke-width="0" fill="#fcc2d7"></path><path d="M45 21 C45 22.22, 44.88 23.45, 44.66 24.65 C44.43 25.84, 44.09 27.04, 43.64 28.18 C43.2 29.32, 42.64 30.45, 41.99 31.5 C41.33 32.55, 40.57 33.57, 39.74 34.5 C38.9 35.43, 37.96 36.31, 36.96 37.09 C35.97 37.87, 34.88 38.58, 33.75 39.19 C32.62 39.79, 31.42 40.32, 30.2 40.73 C28.97 41.15, 27.69 41.47, 26.41 41.68 C25.12 41.89, 23.8 42, 22.5 42 C21.2 42, 19.88 41.89, 18.59 41.68 C17.31 41.47, 16.03 41.15, 14.8 40.73 C13.58 40.32, 12.38 39.79, 11.25 39.19 C10.12 38.58, 9.03 37.87, 8.04 37.09 C7.04 36.31, 6.1 35.43, 5.26 34.5 C4.43 33.57, 3.67 32.55, 3.01 31.5 C2.36 30.45, 1.8 29.32, 1.36 28.18 C0.91 27.04, 0.57 25.84, 0.34 24.65 C0.12 23.45, 0 22.22, 0 21 C0 19.78, 0.12 18.55, 0.34 17.35 C0.57 16.16, 0.91 14.96, 1.36 13.82 C1.8 12.68, 2.36 11.55, 3.01 10.5 C3.67 9.45, 4.43 8.43, 5.26 7.5 C6.1 6.57, 7.04 5.69, 8.04 4.91 C9.03 4.13, 10.12 3.42, 11.25 2.81 C12.38 2.21, 13.58 1.68, 14.8 1.27 C16.03 0.85, 17.31 0.53, 18.59 0.32 C19.88 0.11, 21.2 0, 22.5 0 C23.8 0, 25.12 0.11, 26.41 0.32 C27.69 0.53, 28.97 0.85, 30.2 1.27 C31.42 1.68, 32.62 2.21, 33.75 2.81 C34.88 3.42, 35.97 4.13, 36.96 4.91 C37.96 5.69, 38.9 6.57, 39.74 7.5 C40.57 8.43, 41.33 9.45, 41.99 10.5 C42.64 11.55, 43.2 12.68, 43.64 13.82 C44.09 14.96, 44.43 16.16, 44.66 17.35 C44.88 18.55, 44.94 20.39, 45 21 C45.06 21.61, 45.06 20.39, 45 21" stroke="#e03131" stroke-width="4" fill="none"></path></g><g transform="translate(52.21112014427149 21.150757595082496) rotate(0 10.984375 10)"><text x="10.984375" y="14.096" font-family="Excalifont, Xiaolai, sans-serif, Segoe UI Emoji" font-size="16px" fill="#e03131" text-anchor="middle" style="white-space: pre;" direction="ltr" dominant-baseline="alphabetic">­ЪДа</text></g><g stroke-linecap="round" transform="translate(103.26677514128187 82.85423435271548) rotate(0 22.5 21)"><path d="M45 21 C45 22.22, 44.88 23.45, 44.66 24.65 C44.43 25.84, 44.09 27.04, 43.64 28.18 C43.2 29.32, 42.64 30.45, 41.99 31.5 C41.33 32.55, 40.57 33.57, 39.74 34.5 C38.9 35.43, 37.96 36.31, 36.96 37.09 C35.97 37.87, 34.88 38.58, 33.75 39.19 C32.62 39.79, 31.42 40.32, 30.2 40.73 C28.97 41.15, 27.69 41.47, 26.41 41.68 C25.12 41.89, 23.8 42, 22.5 42 C21.2 42, 19.88 41.89, 18.59 41.68 C17.31 41.47, 16.03 41.15, 14.8 40.73 C13.58 40.32, 12.38 39.79, 11.25 39.19 C10.12 38.58, 9.03 37.87, 8.04 37.09 C7.04 36.31, 6.1 35.43, 5.26 34.5 C4.43 33.57, 3.67 32.55, 3.01 31.5 C2.36 30.45, 1.8 29.32, 1.36 28.18 C0.91 27.04, 0.57 25.84, 0.34 24.65 C0.12 23.45, 0 22.22, 0 21 C0 19.78, 0.12 18.55, 0.34 17.35 C0.57 16.16, 0.91 14.96, 1.36 13.82 C1.8 12.68, 2.36 11.55, 3.01 10.5 C3.67 9.45, 4.43 8.43, 5.26 7.5 C6.1 6.57, 7.04 5.69, 8.04 4.91 C9.03 4.13, 10.12 3.42, 11.25 2.81 C12.38 2.21, 13.58 1.68, 14.8 1.27 C16.03 0.85, 17.31 0.53, 18.59 0.32 C19.88 0.11, 21.2 0, 22.5 0 C23.8 0, 25.12 0.11, 26.41 0.32 C27.69 0.53, 28.97 0.85, 30.2 1.27 C31.42 1.68, 32.62 2.21, 33.75 2.81 C34.88 3.42, 35.97 4.13, 36.96 4.91 C37.96 5.69, 38.9 6.57, 39.74 7.5 C40.57 8.43, 41.33 9.45, 41.99 10.5 C42.64 11.55, 43.2 12.68, 43.64 13.82 C44.09 14.96, 44.43 16.16, 44.66 17.35 C44.88 18.55, 44.94 20.39, 45 21 C45.06 21.61, 45.06 20.39, 45 21" stroke="none" stroke-width="0" fill="#fcc2d7"></path><path d="M45 21 C45 22.22, 44.88 23.45, 44.66 24.65 C44.43 25.84, 44.09 27.04, 43.64 28.18 C43.2 29.32, 42.64 30.45, 41.99 31.5 C41.33 32.55, 40.57 33.57, 39.74 34.5 C38.9 35.43, 37.96 36.31, 36.96 37.09 C35.97 37.87, 34.88 38.58, 33.75 39.19 C32.62 39.79, 31.42 40.32, 30.2 40.73 C28.97 41.15, 27.69 41.47, 26.41 41.68 C25.12 41.89, 23.8 42, 22.5 42 C21.2 42, 19.88 41.89, 18.59 41.68 C17.31 41.47, 16.03 41.15, 14.8 40.73 C13.58 40.32, 12.38 39.79, 11.25 39.19 C10.12 38.58, 9.03 37.87, 8.04 37.09 C7.04 36.31, 6.1 35.43, 5.26 34.5 C4.43 33.57, 3.67 32.55, 3.01 31.5 C2.36 30.45, 1.8 29.32, 1.36 28.18 C0.91 27.04, 0.57 25.84, 0.34 24.65 C0.12 23.45, 0 22.22, 0 21 C0 19.78, 0.12 18.55, 0.34 17.35 C0.57 16.16, 0.91 14.96, 1.36 13.82 C1.8 12.68, 2.36 11.55, 3.01 10.5 C3.67 9.45, 4.43 8.43, 5.26 7.5 C6.1 6.57, 7.04 5.69, 8.04 4.91 C9.03 4.13, 10.12 3.42, 11.25 2.81 C12.38 2.21, 13.58 1.68, 14.8 1.27 C16.03 0.85, 17.31 0.53, 18.59 0.32 C19.88 0.11, 21.2 0, 22.5 0 C23.8 0, 25.12 0.11, 26.41 0.32 C27.69 0.53, 28.97 0.85, 30.2 1.27 C31.42 1.68, 32.62 2.21, 33.75 2.81 C34.88 3.42, 35.97 4.13, 36.96 4.91 C37.96 5.69, 38.9 6.57, 39.74 7.5 C40.57 8.43, 41.33 9.45, 41.99 10.5 C42.64 11.55, 43.2 12.68, 43.64 13.82 C44.09 14.96, 44.43 16.16, 44.66 17.35 C44.88 18.55, 44.94 20.39, 45 21 C45.06 21.61, 45.06 20.39, 45 21" stroke="#e03131" stroke-width="4" fill="none"></path></g><g transform="translate(114.87249756458459 94.00499194779798) rotate(0 10.984375 10)"><text x="10.984375" y="14.096" font-family="Excalifont, Xiaolai, sans-serif, Segoe UI Emoji" font-size="16px" fill="#e03131" text-anchor="middle" style="white-space: pre;" direction="ltr" dominant-baseline="alphabetic">­ЪДа</text></g></svg>