<?xml version="1.0" standalone="no"?>
<!DOCTYPE svg PUBLIC "-//W3C//DTD SVG 1.1//EN" "http://www.w3.org/Graphics/SVG/1.1/DTD/svg11.dtd">
<svg version="1.1" xmlns="http://www.w3.org/2000/svg" viewBox="0 0 160.00000000000045 149.68440785578167" width="160.00000000000045" height="149.68440785578167" filter="invert(93%) hue-rotate(180deg)"><!-- svg-source:excalidraw --><metadata></metadata><defs><style class="style-fonts">
      </style></defs><g stroke-linecap="round"><g transform="translate(46.77192402984838 96.1272729060451) rotate(271.2168977344745 -22.85660869691037 13.7139652181462)" fill-rule="evenodd"><path d="M0 0 L-46.23 24.15 L-25.01 27.43 L0.52 10.87 L0.35 1.9" stroke="none" stroke-width="0" fill="#ced4da" fill-rule="evenodd"></path><path d="M0 0 C-15.48 8.09, -30.96 16.17, -46.23 24.15 M0 0 C-9.42 4.92, -18.84 9.84, -46.23 24.15 M-46.23 24.15 C-38.56 25.33, -30.9 26.52, -25.01 27.43 M-46.23 24.15 C-38.43 25.36, -30.62 26.56, -25.01 27.43 M-25.01 27.43 C-18.06 22.92, -11.1 18.4, 0.52 10.87 M-25.01 27.43 C-16.82 22.11, -8.63 16.8, 0.52 10.87 M0.52 10.87 C0.46 8.02, 0.41 5.18, 0.35 1.9 M0.52 10.87 C0.47 8.57, 0.43 6.28, 0.35 1.9 M0.35 1.9 C0.22 1.24, 0.1 0.57, 0 0 M0.35 1.9 C0.22 1.19, 0.09 0.48, 0 0" stroke="transparent" stroke-width="2" fill="none"></path></g></g><mask></mask><g stroke-linecap="round"><g transform="translate(97.92088527886449 36.07501997930609) rotate(271.2168977344745 -18.11278425038188 70.20860180862275)" fill-rule="evenodd"><path d="M0 0 L-48.99 23.12 L-50.2 132.48 L-48.47 134.72 L-24.15 140.42 L-7.59 121.44 L12.77 101.6 L13.97 1.73 L-24.32 28.46 L-47.44 25.01 L0 0" stroke="none" stroke-width="0" fill="#a5d8ff" fill-rule="evenodd"></path><path d="M0 0 C-19.34 9.13, -38.68 18.25, -48.99 23.12 M0 0 C-17.86 8.43, -35.71 16.85, -48.99 23.12 M-48.99 23.12 C-49.33 53.66, -49.67 84.2, -50.2 132.48 M-48.99 23.12 C-49.47 66.68, -49.95 110.25, -50.2 132.48 M-50.2 132.48 C-49.85 132.93, -49.51 133.38, -48.47 134.72 M-50.2 132.48 C-49.84 132.95, -49.47 133.42, -48.47 134.72 M-48.47 134.72 C-43.45 135.9, -38.42 137.08, -24.15 140.42 M-48.47 134.72 C-40.08 136.69, -31.7 138.65, -24.15 140.42 M-24.15 140.42 C-20.5 136.24, -16.86 132.06, -7.59 121.44 M-24.15 140.42 C-18.6 134.06, -13.05 127.7, -7.59 121.44 M-7.59 121.44 C-0.59 114.62, 6.4 107.8, 12.77 101.6 M-7.59 121.44 C-0.59 114.62, 6.41 107.8, 12.77 101.6 M12.77 101.6 C13.08 75.46, 13.4 49.32, 13.97 1.73 M12.77 101.6 C13.14 70.33, 13.52 39.05, 13.97 1.73 M13.97 1.73 C0.81 10.92, -12.36 20.11, -24.32 28.46 M13.97 1.73 C5.91 7.36, -2.16 12.99, -24.32 28.46 M-24.32 28.46 C-30.05 27.61, -35.79 26.75, -47.44 25.01 M-24.32 28.46 C-33.03 27.16, -41.74 25.86, -47.44 25.01 M-47.44 25.01 C-36.82 19.41, -26.2 13.81, 0 0 M-47.44 25.01 C-29.83 15.73, -12.22 6.44, 0 0 M0 0 C0 0, 0 0, 0 0 M0 0 C0 0, 0 0, 0 0" stroke="#000000" stroke-width="2" fill="none"></path></g></g><mask></mask><g stroke-linecap="round"><g transform="translate(14.751854901892784 81.52888905127242) rotate(271.2168977344745 0.2587540607197525 4.830075800101781)"><path d="M0 0 C0.18 3.3, 0.35 6.6, 0.52 9.66 M0 0 C0.16 3.05, 0.33 6.1, 0.52 9.66" stroke="#343a40" stroke-width="2" fill="none"></path></g></g><mask></mask><g stroke-linecap="round" transform="translate(115.72242372605433 120.64860943707475) rotate(255.77725219915595 4.91632715367507 5.539936047558626)"><path d="M9.83 5.54 C9.83 5.86, 9.81 6.19, 9.76 6.5 C9.71 6.82, 9.63 7.13, 9.54 7.43 C9.44 7.74, 9.32 8.03, 9.17 8.31 C9.03 8.59, 8.87 8.86, 8.68 9.1 C8.5 9.35, 8.29 9.58, 8.08 9.78 C7.86 9.99, 7.62 10.18, 7.37 10.34 C7.13 10.5, 6.87 10.64, 6.6 10.75 C6.33 10.86, 6.05 10.94, 5.77 11 C5.49 11.05, 5.2 11.08, 4.92 11.08 C4.63 11.08, 4.34 11.05, 4.06 11 C3.78 10.94, 3.5 10.86, 3.23 10.75 C2.97 10.64, 2.7 10.5, 2.46 10.34 C2.21 10.18, 1.97 9.99, 1.76 9.78 C1.54 9.58, 1.33 9.35, 1.15 9.1 C0.97 8.86, 0.8 8.59, 0.66 8.31 C0.52 8.03, 0.39 7.74, 0.3 7.43 C0.2 7.13, 0.12 6.82, 0.07 6.5 C0.03 6.19, 0 5.86, 0 5.54 C0 5.22, 0.03 4.89, 0.07 4.58 C0.12 4.26, 0.2 3.95, 0.3 3.65 C0.39 3.34, 0.52 3.05, 0.66 2.77 C0.8 2.49, 0.97 2.22, 1.15 1.98 C1.33 1.73, 1.54 1.5, 1.76 1.3 C1.97 1.09, 2.21 0.9, 2.46 0.74 C2.7 0.58, 2.97 0.44, 3.23 0.33 C3.5 0.22, 3.78 0.14, 4.06 0.08 C4.34 0.03, 4.63 0, 4.92 0 C5.2 0, 5.49 0.03, 5.77 0.08 C6.05 0.14, 6.33 0.22, 6.6 0.33 C6.87 0.44, 7.13 0.58, 7.37 0.74 C7.62 0.9, 7.86 1.09, 8.08 1.3 C8.29 1.5, 8.5 1.73, 8.68 1.98 C8.87 2.22, 9.03 2.49, 9.17 2.77 C9.32 3.05, 9.44 3.34, 9.54 3.65 C9.63 3.95, 9.71 4.26, 9.76 4.58 C9.81 4.89, 9.82 5.38, 9.83 5.54 C9.85 5.7, 9.85 5.38, 9.83 5.54" stroke="none" stroke-width="0" fill="#ced4da"></path><path d="M9.83 5.54 C9.83 5.86, 9.81 6.19, 9.76 6.5 C9.71 6.82, 9.63 7.13, 9.54 7.43 C9.44 7.74, 9.32 8.03, 9.17 8.31 C9.03 8.59, 8.87 8.86, 8.68 9.1 C8.5 9.35, 8.29 9.58, 8.08 9.78 C7.86 9.99, 7.62 10.18, 7.37 10.34 C7.13 10.5, 6.87 10.64, 6.6 10.75 C6.33 10.86, 6.05 10.94, 5.77 11 C5.49 11.05, 5.2 11.08, 4.92 11.08 C4.63 11.08, 4.34 11.05, 4.06 11 C3.78 10.94, 3.5 10.86, 3.23 10.75 C2.97 10.64, 2.7 10.5, 2.46 10.34 C2.21 10.18, 1.97 9.99, 1.76 9.78 C1.54 9.58, 1.33 9.35, 1.15 9.1 C0.97 8.86, 0.8 8.59, 0.66 8.31 C0.52 8.03, 0.39 7.74, 0.3 7.43 C0.2 7.13, 0.12 6.82, 0.07 6.5 C0.03 6.19, 0 5.86, 0 5.54 C0 5.22, 0.03 4.89, 0.07 4.58 C0.12 4.26, 0.2 3.95, 0.3 3.65 C0.39 3.34, 0.52 3.05, 0.66 2.77 C0.8 2.49, 0.97 2.22, 1.15 1.98 C1.33 1.73, 1.54 1.5, 1.76 1.3 C1.97 1.09, 2.21 0.9, 2.46 0.74 C2.7 0.58, 2.97 0.44, 3.23 0.33 C3.5 0.22, 3.78 0.14, 4.06 0.08 C4.34 0.03, 4.63 0, 4.92 0 C5.2 0, 5.49 0.03, 5.77 0.08 C6.05 0.14, 6.33 0.22, 6.6 0.33 C6.87 0.44, 7.13 0.58, 7.37 0.74 C7.62 0.9, 7.86 1.09, 8.08 1.3 C8.29 1.5, 8.5 1.73, 8.68 1.98 C8.87 2.22, 9.03 2.49, 9.17 2.77 C9.32 3.05, 9.44 3.34, 9.54 3.65 C9.63 3.95, 9.71 4.26, 9.76 4.58 C9.81 4.89, 9.82 5.38, 9.83 5.54 C9.85 5.7, 9.85 5.38, 9.83 5.54" stroke="#495057" stroke-width="2" fill="none"></path></g><g stroke-linecap="round"><g transform="translate(101.65259607156077 108.83909467610198) rotate(271.2168977344745 2.4150379000509474 -0.48727568822829426)" fill-rule="evenodd"><path d="M0 0 L-0.35 3.45 L5 -0.69 L5.18 -4.42 L0 0" stroke="none" stroke-width="0" fill="#ced4da" fill-rule="evenodd"></path><path d="M0 0 C-0.14 1.37, -0.27 2.73, -0.35 3.45 M0 0 C-0.11 1.1, -0.22 2.19, -0.35 3.45 M-0.35 3.45 C1.03 2.38, 2.41 1.32, 5 -0.69 M-0.35 3.45 C1.79 1.8, 3.93 0.14, 5 -0.69 M5 -0.69 C5.04 -1.56, 5.08 -2.44, 5.18 -4.42 M5 -0.69 C5.06 -1.88, 5.11 -3.08, 5.18 -4.42 M5.18 -4.42 C3.69 -3.16, 2.21 -1.89, 0 0 M5.18 -4.42 C3.8 -3.25, 2.43 -2.08, 0 0 M0 0 C0 0, 0 0, 0 0 M0 0 C0 0, 0 0, 0 0" stroke="#495057" stroke-width="2" fill="none"></path></g></g><mask></mask><g stroke-linecap="round"><g transform="translate(73.48814974474226 107.89498180108097) rotate(271.2168977344745 2.4150379000509474 -0.48727568822829426)" fill-rule="evenodd"><path d="M0 0 L-0.35 3.45 L5 -0.69 L5.18 -4.42 L0 0" stroke="none" stroke-width="0" fill="#ced4da" fill-rule="evenodd"></path><path d="M0 0 C-0.11 1.06, -0.21 2.11, -0.35 3.45 M0 0 C-0.08 0.8, -0.16 1.6, -0.35 3.45 M-0.35 3.45 C1.72 1.85, 3.78 0.25, 5 -0.69 M-0.35 3.45 C1.12 2.32, 2.58 1.19, 5 -0.69 M5 -0.69 C5.05 -1.76, 5.1 -2.83, 5.18 -4.42 M5 -0.69 C5.04 -1.56, 5.08 -2.42, 5.18 -4.42 M5.18 -4.42 C3.21 -2.75, 1.25 -1.07, 0 0 M5.18 -4.42 C3.95 -3.38, 2.73 -2.34, 0 0 M0 0 C0 0, 0 0, 0 0 M0 0 C0 0, 0 0, 0 0" stroke="#495057" stroke-width="2" fill="none"></path></g></g><mask></mask><g stroke-linecap="round"><g transform="translate(67.49360293044992 92.51464316730886) rotate(271.2168977344745 7.335788200063007 32.56541490682196)" fill-rule="evenodd"><path d="M0 0 L15.22 2.61 L14.67 65.13 L-0.55 61.84 L-0.55 1.1" stroke="none" stroke-width="0" fill="#ced4da" fill-rule="evenodd"></path><path d="M0 0 C5.37 0.92, 10.73 1.84, 15.22 2.61 M0 0 C4.88 0.84, 9.76 1.67, 15.22 2.61 M15.22 2.61 C15.07 19.26, 14.93 35.91, 14.67 65.13 M15.22 2.61 C15.05 21.94, 14.88 41.27, 14.67 65.13 M14.67 65.13 C8.59 63.81, 2.5 62.5, -0.55 61.84 M14.67 65.13 C8.78 63.86, 2.9 62.58, -0.55 61.84 M-0.55 61.84 C-0.55 38.2, -0.55 14.56, -0.55 1.1 M-0.55 61.84 C-0.55 42.46, -0.55 23.08, -0.55 1.1 M-0.55 1.1 C-0.44 0.87, -0.32 0.65, 0 0 M-0.55 1.1 C-0.41 0.83, -0.28 0.55, 0 0" stroke="#000000" stroke-width="1" fill="none"></path></g></g><mask></mask><g stroke-linecap="round"><g transform="translate(65.7047456785449 124.55381869828926) rotate(271.2168977344745 4.867672543967046 0.548470145799115)"><path d="M0 0 C3.3 0.55, 7.1 0.99, 9.74 1.1 M0 0 C3.72 0.46, 7.11 0.75, 9.74 1.1" stroke="#000000" stroke-width="1" fill="none"></path></g></g><mask></mask><g stroke-linecap="round"><g transform="translate(75.42718308151962 125.26485379509069) rotate(271.2168977344745 4.867672543967046 0.548470145799115)"><path d="M0 0 C2.78 0.48, 5.66 0.46, 9.74 1.1 M0 0 C3.83 0.39, 7.71 1.02, 9.74 1.1" stroke="#000000" stroke-width="1" fill="none"></path></g></g><mask></mask><g stroke-linecap="round"><g transform="translate(86.08137928151154 125.0013549779622) rotate(271.2168977344745 4.867672543967046 0.548470145799115)"><path d="M0 0 C3.35 0.38, 6.71 0.76, 9.74 1.1 M0 0 C3.47 0.39, 6.94 0.78, 9.74 1.1" stroke="#000000" stroke-width="1" fill="none"></path></g></g><mask></mask><g stroke-linecap="round"><g transform="translate(55.5336488396681 123.74998443506212) rotate(271.2168977344745 4.867672543967046 0.548470145799115)"><path d="M0 0 C3.81 0.69, 7.16 0.69, 9.74 1.1 M0 0 C2.6 0.24, 5.6 0.61, 9.74 1.1" stroke="#000000" stroke-width="1" fill="none"></path></g></g><mask></mask><g stroke-linecap="round"><g transform="translate(93.1871911890571 57.22318776907406) rotate(272.14953734668137 0.9607751950896954 55.85530036868107)"><path d="M0 0 C0.49 28.77, 0.99 57.53, 1.92 111.71 M0 0 C0.77 44.61, 1.53 89.23, 1.92 111.71" stroke="#000000" stroke-width="1" fill="none"></path></g></g><mask></mask><g stroke-linecap="round"><g transform="translate(46.77192402984838 64.75179782095614) rotate(271.2168977344745 -22.85660869691037 13.7139652181462)" fill-rule="evenodd"><path d="M0 0 L-46.23 24.15 L-25.01 27.43 L0.52 10.87 L0.35 1.9" stroke="none" stroke-width="0" fill="#ced4da" fill-rule="evenodd"></path><path d="M0 0 C-12.38 6.47, -24.77 12.94, -46.23 24.15 M0 0 C-14.29 7.47, -28.59 14.93, -46.23 24.15 M-46.23 24.15 C-39.64 25.17, -33.04 26.19, -25.01 27.43 M-46.23 24.15 C-40.1 25.1, -33.96 26.05, -25.01 27.43 M-25.01 27.43 C-16.65 22, -8.28 16.57, 0.52 10.87 M-25.01 27.43 C-17.46 22.53, -9.9 17.63, 0.52 10.87 M0.52 10.87 C0.47 8.61, 0.43 6.35, 0.35 1.9 M0.52 10.87 C0.47 8.19, 0.41 5.51, 0.35 1.9 M0.35 1.9 C0.27 1.5, 0.2 1.1, 0 0 M0.35 1.9 C0.25 1.35, 0.15 0.81, 0 0" stroke="transparent" stroke-width="2" fill="none"></path></g></g><mask></mask><g stroke-linecap="round"><g transform="translate(97.92088527886426 4.69954489421707) rotate(271.2168977344745 -18.11278425038188 70.20860180862272)" fill-rule="evenodd"><path d="M0 0 L-48.99 23.12 L-50.2 132.48 L-48.47 134.72 L-24.15 140.42 L-7.59 121.44 L12.77 101.6 L13.97 1.73 L-24.32 28.46 L-47.44 25.01 L0 0" stroke="none" stroke-width="0" fill="#a5d8ff" fill-rule="evenodd"></path><path d="M0 0 C-16.53 7.8, -33.05 15.59, -48.99 23.12 M0 0 C-17.22 8.12, -34.43 16.25, -48.99 23.12 M-48.99 23.12 C-49.38 58.8, -49.78 94.48, -50.2 132.48 M-48.99 23.12 C-49.45 64.6, -49.91 106.09, -50.2 132.48 M-50.2 132.48 C-49.72 133.11, -49.24 133.73, -48.47 134.72 M-50.2 132.48 C-49.72 133.11, -49.24 133.73, -48.47 134.72 M-48.47 134.72 C-38.93 136.96, -29.39 139.19, -24.15 140.42 M-48.47 134.72 C-39.36 136.86, -30.25 138.99, -24.15 140.42 M-24.15 140.42 C-20.18 135.86, -16.2 131.31, -7.59 121.44 M-24.15 140.42 C-17.74 133.07, -11.32 125.72, -7.59 121.44 M-7.59 121.44 C-3.27 117.23, 1.05 113.02, 12.77 101.6 M-7.59 121.44 C-2.93 116.9, 1.73 112.36, 12.77 101.6 M12.77 101.6 C13.09 74.97, 13.41 48.34, 13.97 1.73 M12.77 101.6 C13.14 70.62, 13.51 39.64, 13.97 1.73 M13.97 1.73 C-0.33 11.71, -14.63 21.69, -24.32 28.46 M13.97 1.73 C0.85 10.89, -12.28 20.06, -24.32 28.46 M-24.32 28.46 C-30.41 27.55, -36.49 26.65, -47.44 25.01 M-24.32 28.46 C-29.92 27.63, -35.52 26.79, -47.44 25.01 M-47.44 25.01 C-34.46 18.17, -21.47 11.32, 0 0 M-47.44 25.01 C-31.73 16.73, -16.02 8.45, 0 0 M0 0 C0 0, 0 0, 0 0 M0 0 C0 0, 0 0, 0 0" stroke="#000000" stroke-width="2" fill="none"></path></g></g><mask></mask><g stroke-linecap="round"><g transform="translate(14.751854901893012 50.15341396618339) rotate(271.2168977344745 0.2587540607197525 4.83007580010181)"><path d="M0 0 C0.16 3.04, 0.33 6.09, 0.52 9.66 M0 0 C0.12 2.22, 0.24 4.44, 0.52 9.66" stroke="#343a40" stroke-width="2" fill="none"></path></g></g><mask></mask><g stroke-linecap="round" transform="translate(115.72242372605433 89.27313435198568) rotate(255.77725219915595 4.91632715367507 5.539936047558626)"><path d="M9.83 5.54 C9.83 5.86, 9.81 6.19, 9.76 6.5 C9.71 6.82, 9.63 7.13, 9.54 7.43 C9.44 7.74, 9.32 8.03, 9.17 8.31 C9.03 8.59, 8.87 8.86, 8.68 9.1 C8.5 9.35, 8.29 9.58, 8.08 9.78 C7.86 9.99, 7.62 10.18, 7.37 10.34 C7.13 10.5, 6.87 10.64, 6.6 10.75 C6.33 10.86, 6.05 10.94, 5.77 11 C5.49 11.05, 5.2 11.08, 4.92 11.08 C4.63 11.08, 4.34 11.05, 4.06 11 C3.78 10.94, 3.5 10.86, 3.23 10.75 C2.97 10.64, 2.7 10.5, 2.46 10.34 C2.21 10.18, 1.97 9.99, 1.76 9.78 C1.54 9.58, 1.33 9.35, 1.15 9.1 C0.97 8.86, 0.8 8.59, 0.66 8.31 C0.52 8.03, 0.39 7.74, 0.3 7.43 C0.2 7.13, 0.12 6.82, 0.07 6.5 C0.03 6.19, 0 5.86, 0 5.54 C0 5.22, 0.03 4.89, 0.07 4.58 C0.12 4.26, 0.2 3.95, 0.3 3.65 C0.39 3.34, 0.52 3.05, 0.66 2.77 C0.8 2.49, 0.97 2.22, 1.15 1.98 C1.33 1.73, 1.54 1.5, 1.76 1.3 C1.97 1.09, 2.21 0.9, 2.46 0.74 C2.7 0.58, 2.97 0.44, 3.23 0.33 C3.5 0.22, 3.78 0.14, 4.06 0.08 C4.34 0.03, 4.63 0, 4.92 0 C5.2 0, 5.49 0.03, 5.77 0.08 C6.05 0.14, 6.33 0.22, 6.6 0.33 C6.87 0.44, 7.13 0.58, 7.37 0.74 C7.62 0.9, 7.86 1.09, 8.08 1.3 C8.29 1.5, 8.5 1.73, 8.68 1.98 C8.87 2.22, 9.03 2.49, 9.17 2.77 C9.32 3.05, 9.44 3.34, 9.54 3.65 C9.63 3.95, 9.71 4.26, 9.76 4.58 C9.81 4.89, 9.82 5.38, 9.83 5.54 C9.85 5.7, 9.85 5.38, 9.83 5.54" stroke="none" stroke-width="0" fill="#ced4da"></path><path d="M9.83 5.54 C9.83 5.86, 9.81 6.19, 9.76 6.5 C9.71 6.82, 9.63 7.13, 9.54 7.43 C9.44 7.74, 9.32 8.03, 9.17 8.31 C9.03 8.59, 8.87 8.86, 8.68 9.1 C8.5 9.35, 8.29 9.58, 8.08 9.78 C7.86 9.99, 7.62 10.18, 7.37 10.34 C7.13 10.5, 6.87 10.64, 6.6 10.75 C6.33 10.86, 6.05 10.94, 5.77 11 C5.49 11.05, 5.2 11.08, 4.92 11.08 C4.63 11.08, 4.34 11.05, 4.06 11 C3.78 10.94, 3.5 10.86, 3.23 10.75 C2.97 10.64, 2.7 10.5, 2.46 10.34 C2.21 10.18, 1.97 9.99, 1.76 9.78 C1.54 9.58, 1.33 9.35, 1.15 9.1 C0.97 8.86, 0.8 8.59, 0.66 8.31 C0.52 8.03, 0.39 7.74, 0.3 7.43 C0.2 7.13, 0.12 6.82, 0.07 6.5 C0.03 6.19, 0 5.86, 0 5.54 C0 5.22, 0.03 4.89, 0.07 4.58 C0.12 4.26, 0.2 3.95, 0.3 3.65 C0.39 3.34, 0.52 3.05, 0.66 2.77 C0.8 2.49, 0.97 2.22, 1.15 1.98 C1.33 1.73, 1.54 1.5, 1.76 1.3 C1.97 1.09, 2.21 0.9, 2.46 0.74 C2.7 0.58, 2.97 0.44, 3.23 0.33 C3.5 0.22, 3.78 0.14, 4.06 0.08 C4.34 0.03, 4.63 0, 4.92 0 C5.2 0, 5.49 0.03, 5.77 0.08 C6.05 0.14, 6.33 0.22, 6.6 0.33 C6.87 0.44, 7.13 0.58, 7.37 0.74 C7.62 0.9, 7.86 1.09, 8.08 1.3 C8.29 1.5, 8.5 1.73, 8.68 1.98 C8.87 2.22, 9.03 2.49, 9.17 2.77 C9.32 3.05, 9.44 3.34, 9.54 3.65 C9.63 3.95, 9.71 4.26, 9.76 4.58 C9.81 4.89, 9.82 5.38, 9.83 5.54 C9.85 5.7, 9.85 5.38, 9.83 5.54" stroke="#495057" stroke-width="2" fill="none"></path></g><g stroke-linecap="round"><g transform="translate(101.65259607156077 77.4636195910129) rotate(271.2168977344745 2.4150379000509474 -0.48727568822829426)" fill-rule="evenodd"><path d="M0 0 L-0.35 3.45 L5 -0.69 L5.18 -4.42 L0 0" stroke="none" stroke-width="0" fill="#ced4da" fill-rule="evenodd"></path><path d="M0 0 C-0.12 1.16, -0.23 2.33, -0.35 3.45 M0 0 C-0.14 1.36, -0.27 2.73, -0.35 3.45 M-0.35 3.45 C1.03 2.39, 2.4 1.32, 5 -0.69 M-0.35 3.45 C1.12 2.31, 2.59 1.17, 5 -0.69 M5 -0.69 C5.06 -1.91, 5.12 -3.13, 5.18 -4.42 M5 -0.69 C5.07 -2.08, 5.13 -3.47, 5.18 -4.42 M5.18 -4.42 C3.5 -2.99, 1.82 -1.56, 0 0 M5.18 -4.42 C4.11 -3.52, 3.05 -2.61, 0 0 M0 0 C0 0, 0 0, 0 0 M0 0 C0 0, 0 0, 0 0" stroke="#495057" stroke-width="2" fill="none"></path></g></g><mask></mask><g stroke-linecap="round"><g transform="translate(73.48814974474226 76.51950671599201) rotate(271.2168977344745 2.4150379000509474 -0.48727568822829426)" fill-rule="evenodd"><path d="M0 0 L-0.35 3.45 L5 -0.69 L5.18 -4.42 L0 0" stroke="none" stroke-width="0" fill="#ced4da" fill-rule="evenodd"></path><path d="M0 0 C-0.11 1.11, -0.22 2.21, -0.35 3.45 M0 0 C-0.1 0.95, -0.19 1.9, -0.35 3.45 M-0.35 3.45 C1.19 2.26, 2.73 1.07, 5 -0.69 M-0.35 3.45 C1.42 2.08, 3.19 0.71, 5 -0.69 M5 -0.69 C5.04 -1.56, 5.08 -2.43, 5.18 -4.42 M5 -0.69 C5.05 -1.67, 5.09 -2.65, 5.18 -4.42 M5.18 -4.42 C3.16 -2.7, 1.15 -0.98, 0 0 M5.18 -4.42 C3.3 -2.82, 1.43 -1.22, 0 0 M0 0 C0 0, 0 0, 0 0 M0 0 C0 0, 0 0, 0 0" stroke="#495057" stroke-width="2" fill="none"></path></g></g><mask></mask><g stroke-linecap="round"><g transform="translate(67.49360293045015 61.139168082219896) rotate(271.2168977344745 7.335788200063007 32.56541490682196)" fill-rule="evenodd"><path d="M0 0 L15.22 2.61 L14.67 65.13 L-0.55 61.84 L-0.55 1.1" stroke="none" stroke-width="0" fill="#ced4da" fill-rule="evenodd"></path><path d="M0 0 C5.31 0.91, 10.62 1.82, 15.22 2.61 M0 0 C3.35 0.57, 6.7 1.15, 15.22 2.61 M15.22 2.61 C15.09 17.21, 14.96 31.81, 14.67 65.13 M15.22 2.61 C15.09 17.1, 14.97 31.59, 14.67 65.13 M14.67 65.13 C11.52 64.45, 8.36 63.77, -0.55 61.84 M14.67 65.13 C9.49 64.01, 4.31 62.89, -0.55 61.84 M-0.55 61.84 C-0.55 46.59, -0.55 31.34, -0.55 1.1 M-0.55 61.84 C-0.55 40.12, -0.55 18.39, -0.55 1.1 M-0.55 1.1 C-0.38 0.76, -0.21 0.42, 0 0 M-0.55 1.1 C-0.41 0.83, -0.28 0.56, 0 0" stroke="#000000" stroke-width="1" fill="none"></path></g></g><mask></mask><g stroke-linecap="round"><g transform="translate(65.7047456785449 93.1783436132003) rotate(271.2168977344745 4.867672543967046 0.548470145799115)"><path d="M0 0 C2.95 0.07, 5.79 0.69, 9.74 1.1 M0 0 C2.79 0.28, 5.52 0.63, 9.74 1.1" stroke="#000000" stroke-width="1" fill="none"></path></g></g><mask></mask><g stroke-linecap="round"><g transform="translate(75.42718308151984 93.88937871000172) rotate(271.2168977344745 4.867672543967046 0.548470145799115)"><path d="M0 0 C2.91 0.4, 6.32 0.6, 9.74 1.1 M0 0 C3.58 0.44, 7.43 0.79, 9.74 1.1" stroke="#000000" stroke-width="1" fill="none"></path></g></g><mask></mask><g stroke-linecap="round"><g transform="translate(86.08137928151154 93.62587989287323) rotate(271.2168977344745 4.867672543967046 0.548470145799115)"><path d="M0 0 C2.15 0.24, 4.31 0.49, 9.74 1.1 M0 0 C2.86 0.32, 5.72 0.64, 9.74 1.1" stroke="#000000" stroke-width="1" fill="none"></path></g></g><mask></mask><g stroke-linecap="round"><g transform="translate(55.5336488396681 92.37450934997327) rotate(271.2168977344745 4.867672543967046 0.548470145799115)"><path d="M0 0 C3.24 0.31, 5.95 0.47, 9.74 1.1 M0 0 C3.03 0.4, 6.04 0.59, 9.74 1.1" stroke="#000000" stroke-width="1" fill="none"></path></g></g><mask></mask><g stroke-linecap="round"><g transform="translate(93.1871911890571 25.84771268398498) rotate(272.14953734668137 0.9607751950896954 55.85530036868107)"><path d="M0 0 C0.49 28.68, 0.99 57.36, 1.92 111.71 M0 0 C0.53 30.7, 1.06 61.4, 1.92 111.71" stroke="#000000" stroke-width="1" fill="none"></path></g></g><mask></mask><g stroke-linecap="round"><g transform="translate(46.77192402984838 33.37632273586746) rotate(271.2168977344745 -22.85660869691037 13.7139652181462)" fill-rule="evenodd"><path d="M0 0 L-46.23 24.15 L-25.01 27.43 L0.52 10.87 L0.35 1.9" stroke="none" stroke-width="0" fill="#ced4da" fill-rule="evenodd"></path><path d="M0 0 C-17.65 9.22, -35.3 18.44, -46.23 24.15 M0 0 C-10.77 5.63, -21.54 11.25, -46.23 24.15 M-46.23 24.15 C-37.99 25.42, -29.75 26.7, -25.01 27.43 M-46.23 24.15 C-38.77 25.3, -31.31 26.45, -25.01 27.43 M-25.01 27.43 C-17.16 22.34, -9.31 17.24, 0.52 10.87 M-25.01 27.43 C-17.48 22.54, -9.96 17.66, 0.52 10.87 M0.52 10.87 C0.45 7.35, 0.38 3.84, 0.35 1.9 M0.52 10.87 C0.47 8.59, 0.43 6.32, 0.35 1.9 M0.35 1.9 C0.22 1.22, 0.1 0.54, 0 0 M0.35 1.9 C0.25 1.39, 0.16 0.88, 0 0" stroke="transparent" stroke-width="2" fill="none"></path></g></g><mask></mask><g stroke-linecap="round"><g transform="translate(97.92088527886449 -26.67593019087161) rotate(271.2168977344745 -18.11278425038188 70.20860180862275)" fill-rule="evenodd"><path d="M0 0 L-48.99 23.12 L-50.2 132.48 L-48.47 134.72 L-24.15 140.42 L-7.59 121.44 L12.77 101.6 L13.97 1.73 L-24.32 28.46 L-47.44 25.01 L0 0" stroke="none" stroke-width="0" fill="#a5d8ff" fill-rule="evenodd"></path><path d="M0 0 C-17.32 8.17, -34.64 16.34, -48.99 23.12 M0 0 C-14.83 7, -29.65 13.99, -48.99 23.12 M-48.99 23.12 C-49.32 52.96, -49.65 82.8, -50.2 132.48 M-48.99 23.12 C-49.26 47.34, -49.53 71.56, -50.2 132.48 M-50.2 132.48 C-49.55 133.33, -48.9 134.17, -48.47 134.72 M-50.2 132.48 C-49.57 133.29, -48.95 134.1, -48.47 134.72 M-48.47 134.72 C-39.66 136.79, -30.85 138.85, -24.15 140.42 M-48.47 134.72 C-39.01 136.94, -29.54 139.16, -24.15 140.42 M-24.15 140.42 C-17.97 133.34, -11.8 126.26, -7.59 121.44 M-24.15 140.42 C-17.62 132.93, -11.09 125.45, -7.59 121.44 M-7.59 121.44 C-2.77 116.74, 2.06 112.04, 12.77 101.6 M-7.59 121.44 C-1.63 115.63, 4.33 109.83, 12.77 101.6 M12.77 101.6 C13.03 79.79, 13.29 57.97, 13.97 1.73 M12.77 101.6 C13.16 68.79, 13.56 35.98, 13.97 1.73 M13.97 1.73 C3.88 8.77, -6.21 15.82, -24.32 28.46 M13.97 1.73 C3.31 9.17, -7.35 16.61, -24.32 28.46 M-24.32 28.46 C-32.35 27.27, -40.37 26.07, -47.44 25.01 M-24.32 28.46 C-32.51 27.24, -40.7 26.02, -47.44 25.01 M-47.44 25.01 C-32.27 17.02, -17.11 9.02, 0 0 M-47.44 25.01 C-37.65 19.85, -27.87 14.7, 0 0 M0 0 C0 0, 0 0, 0 0 M0 0 C0 0, 0 0, 0 0" stroke="#000000" stroke-width="2" fill="none"></path></g></g><mask></mask><g stroke-linecap="round"><g transform="translate(14.751854901893239 18.77793888109477) rotate(271.2168977344745 0.2587540607197525 4.83007580010181)"><path d="M0 0 C0.17 3.26, 0.35 6.53, 0.52 9.66 M0 0 C0.11 2.03, 0.22 4.07, 0.52 9.66" stroke="#343a40" stroke-width="2" fill="none"></path></g></g><mask></mask><g stroke-linecap="round" transform="translate(115.72242372605456 57.89765926689705) rotate(255.77725219915595 4.91632715367507 5.539936047558626)"><path d="M9.83 5.54 C9.83 5.86, 9.81 6.19, 9.76 6.5 C9.71 6.82, 9.63 7.13, 9.54 7.43 C9.44 7.74, 9.32 8.03, 9.17 8.31 C9.03 8.59, 8.87 8.86, 8.68 9.1 C8.5 9.35, 8.29 9.58, 8.08 9.78 C7.86 9.99, 7.62 10.18, 7.37 10.34 C7.13 10.5, 6.87 10.64, 6.6 10.75 C6.33 10.86, 6.05 10.94, 5.77 11 C5.49 11.05, 5.2 11.08, 4.92 11.08 C4.63 11.08, 4.34 11.05, 4.06 11 C3.78 10.94, 3.5 10.86, 3.23 10.75 C2.97 10.64, 2.7 10.5, 2.46 10.34 C2.21 10.18, 1.97 9.99, 1.76 9.78 C1.54 9.58, 1.33 9.35, 1.15 9.1 C0.97 8.86, 0.8 8.59, 0.66 8.31 C0.52 8.03, 0.39 7.74, 0.3 7.43 C0.2 7.13, 0.12 6.82, 0.07 6.5 C0.03 6.19, 0 5.86, 0 5.54 C0 5.22, 0.03 4.89, 0.07 4.58 C0.12 4.26, 0.2 3.95, 0.3 3.65 C0.39 3.34, 0.52 3.05, 0.66 2.77 C0.8 2.49, 0.97 2.22, 1.15 1.98 C1.33 1.73, 1.54 1.5, 1.76 1.3 C1.97 1.09, 2.21 0.9, 2.46 0.74 C2.7 0.58, 2.97 0.44, 3.23 0.33 C3.5 0.22, 3.78 0.14, 4.06 0.08 C4.34 0.03, 4.63 0, 4.92 0 C5.2 0, 5.49 0.03, 5.77 0.08 C6.05 0.14, 6.33 0.22, 6.6 0.33 C6.87 0.44, 7.13 0.58, 7.37 0.74 C7.62 0.9, 7.86 1.09, 8.08 1.3 C8.29 1.5, 8.5 1.73, 8.68 1.98 C8.87 2.22, 9.03 2.49, 9.17 2.77 C9.32 3.05, 9.44 3.34, 9.54 3.65 C9.63 3.95, 9.71 4.26, 9.76 4.58 C9.81 4.89, 9.82 5.38, 9.83 5.54 C9.85 5.7, 9.85 5.38, 9.83 5.54" stroke="none" stroke-width="0" fill="#ced4da"></path><path d="M9.83 5.54 C9.83 5.86, 9.81 6.19, 9.76 6.5 C9.71 6.82, 9.63 7.13, 9.54 7.43 C9.44 7.74, 9.32 8.03, 9.17 8.31 C9.03 8.59, 8.87 8.86, 8.68 9.1 C8.5 9.35, 8.29 9.58, 8.08 9.78 C7.86 9.99, 7.62 10.18, 7.37 10.34 C7.13 10.5, 6.87 10.64, 6.6 10.75 C6.33 10.86, 6.05 10.94, 5.77 11 C5.49 11.05, 5.2 11.08, 4.92 11.08 C4.63 11.08, 4.34 11.05, 4.06 11 C3.78 10.94, 3.5 10.86, 3.23 10.75 C2.97 10.64, 2.7 10.5, 2.46 10.34 C2.21 10.18, 1.97 9.99, 1.76 9.78 C1.54 9.58, 1.33 9.35, 1.15 9.1 C0.97 8.86, 0.8 8.59, 0.66 8.31 C0.52 8.03, 0.39 7.74, 0.3 7.43 C0.2 7.13, 0.12 6.82, 0.07 6.5 C0.03 6.19, 0 5.86, 0 5.54 C0 5.22, 0.03 4.89, 0.07 4.58 C0.12 4.26, 0.2 3.95, 0.3 3.65 C0.39 3.34, 0.52 3.05, 0.66 2.77 C0.8 2.49, 0.97 2.22, 1.15 1.98 C1.33 1.73, 1.54 1.5, 1.76 1.3 C1.97 1.09, 2.21 0.9, 2.46 0.74 C2.7 0.58, 2.97 0.44, 3.23 0.33 C3.5 0.22, 3.78 0.14, 4.06 0.08 C4.34 0.03, 4.63 0, 4.92 0 C5.2 0, 5.49 0.03, 5.77 0.08 C6.05 0.14, 6.33 0.22, 6.6 0.33 C6.87 0.44, 7.13 0.58, 7.37 0.74 C7.62 0.9, 7.86 1.09, 8.08 1.3 C8.29 1.5, 8.5 1.73, 8.68 1.98 C8.87 2.22, 9.03 2.49, 9.17 2.77 C9.32 3.05, 9.44 3.34, 9.54 3.65 C9.63 3.95, 9.71 4.26, 9.76 4.58 C9.81 4.89, 9.82 5.38, 9.83 5.54 C9.85 5.7, 9.85 5.38, 9.83 5.54" stroke="#495057" stroke-width="2" fill="none"></path></g><g stroke-linecap="round"><g transform="translate(101.65259607156077 46.08814450592433) rotate(271.2168977344745 2.4150379000509474 -0.48727568822829426)" fill-rule="evenodd"><path d="M0 0 L-0.35 3.45 L5 -0.69 L5.18 -4.42 L0 0" stroke="none" stroke-width="0" fill="#ced4da" fill-rule="evenodd"></path><path d="M0 0 C-0.09 0.85, -0.17 1.7, -0.35 3.45 M0 0 C-0.11 1.11, -0.22 2.21, -0.35 3.45 M-0.35 3.45 C0.96 2.44, 2.26 1.43, 5 -0.69 M-0.35 3.45 C0.96 2.44, 2.27 1.43, 5 -0.69 M5 -0.69 C5.05 -1.7, 5.1 -2.72, 5.18 -4.42 M5 -0.69 C5.07 -2.11, 5.13 -3.53, 5.18 -4.42 M5.18 -4.42 C3.36 -2.87, 1.55 -1.32, 0 0 M5.18 -4.42 C3.4 -2.91, 1.63 -1.4, 0 0 M0 0 C0 0, 0 0, 0 0 M0 0 C0 0, 0 0, 0 0" stroke="#495057" stroke-width="2" fill="none"></path></g></g><mask></mask><g stroke-linecap="round"><g transform="translate(73.48814974474249 45.14403163090333) rotate(271.2168977344745 2.4150379000509474 -0.48727568822829426)" fill-rule="evenodd"><path d="M0 0 L-0.35 3.45 L5 -0.69 L5.18 -4.42 L0 0" stroke="none" stroke-width="0" fill="#ced4da" fill-rule="evenodd"></path><path d="M0 0 C-0.09 0.9, -0.18 1.81, -0.35 3.45 M0 0 C-0.08 0.8, -0.16 1.6, -0.35 3.45 M-0.35 3.45 C1.66 1.9, 3.67 0.34, 5 -0.69 M-0.35 3.45 C1.49 2.03, 3.33 0.61, 5 -0.69 M5 -0.69 C5.06 -1.83, 5.11 -2.97, 5.18 -4.42 M5 -0.69 C5.04 -1.45, 5.07 -2.22, 5.18 -4.42 M5.18 -4.42 C3.58 -3.06, 1.99 -1.7, 0 0 M5.18 -4.42 C3.53 -3.02, 1.88 -1.61, 0 0 M0 0 C0 0, 0 0, 0 0 M0 0 C0 0, 0 0, 0 0" stroke="#495057" stroke-width="2" fill="none"></path></g></g><mask></mask><g stroke-linecap="round"><g transform="translate(67.49360293045015 29.763692997131216) rotate(271.2168977344745 7.335788200063007 32.565414906821985)" fill-rule="evenodd"><path d="M0 0 L15.22 2.61 L14.67 65.13 L-0.55 61.84 L-0.55 1.1" stroke="none" stroke-width="0" fill="#ced4da" fill-rule="evenodd"></path><path d="M0 0 C5.02 0.86, 10.05 1.72, 15.22 2.61 M0 0 C3.7 0.63, 7.39 1.27, 15.22 2.61 M15.22 2.61 C15.11 15.7, 14.99 28.79, 14.67 65.13 M15.22 2.61 C15.04 23.63, 14.85 44.65, 14.67 65.13 M14.67 65.13 C9.48 64.01, 4.3 62.89, -0.55 61.84 M14.67 65.13 C11.54 64.45, 8.41 63.78, -0.55 61.84 M-0.55 61.84 C-0.55 42.89, -0.55 23.94, -0.55 1.1 M-0.55 61.84 C-0.55 37.69, -0.55 13.54, -0.55 1.1 M-0.55 1.1 C-0.36 0.72, -0.17 0.35, 0 0 M-0.55 1.1 C-0.42 0.83, -0.29 0.57, 0 0" stroke="#000000" stroke-width="1" fill="none"></path></g></g><mask></mask><g stroke-linecap="round"><g transform="translate(65.70474567854512 61.80286852811162) rotate(271.2168977344745 4.867672543967046 0.5484701457990866)"><path d="M0 0 C3.56 0.74, 7.38 0.92, 9.74 1.1 M0 0 C3.54 0.34, 6.69 0.9, 9.74 1.1" stroke="#000000" stroke-width="1" fill="none"></path></g></g><mask></mask><g stroke-linecap="round"><g transform="translate(75.42718308152007 62.5139036249131) rotate(271.2168977344745 4.867672543967046 0.548470145799115)"><path d="M0 0 C2.47 0.33, 5.48 0.38, 9.74 1.1 M0 0 C2.01 0.36, 4.33 0.41, 9.74 1.1" stroke="#000000" stroke-width="1" fill="none"></path></g></g><mask></mask><g stroke-linecap="round"><g transform="translate(86.08137928151177 62.25040480778449) rotate(271.2168977344745 4.867672543967046 0.548470145799115)"><path d="M0 0 C3.84 0.43, 7.69 0.87, 9.74 1.1 M0 0 C2.48 0.28, 4.96 0.56, 9.74 1.1" stroke="#000000" stroke-width="1" fill="none"></path></g></g><mask></mask><g stroke-linecap="round"><g transform="translate(55.5336488396681 60.99903426488453) rotate(271.2168977344745 4.867672543967046 0.548470145799115)"><path d="M0 0 C2.85 0.61, 6.07 0.42, 9.74 1.1 M0 0 C3.67 0.49, 7 0.88, 9.74 1.1" stroke="#000000" stroke-width="1" fill="none"></path></g></g><mask></mask><g stroke-linecap="round"><g transform="translate(93.18719118905733 -5.527762401103644) rotate(272.14953734668137 0.9607751950896954 55.85530036868107)"><path d="M0 0 C0.47 27.24, 0.94 54.49, 1.92 111.71 M0 0 C0.47 27.29, 0.94 54.57, 1.92 111.71" stroke="#000000" stroke-width="1" fill="none"></path></g></g><mask></mask></svg>