<?xml version="1.0" standalone="no"?>
<!DOCTYPE svg PUBLIC "-//W3C//DTD SVG 1.1//EN" "http://www.w3.org/Graphics/SVG/1.1/DTD/svg11.dtd">
<svg version="1.1" xmlns="http://www.w3.org/2000/svg" viewBox="0 0 196.26370220813624 198.78032368742714" width="196.26370220813624" height="198.78032368742714" filter="invert(93%) hue-rotate(180deg)"><!-- svg-source:excalidraw --><metadata></metadata><defs><style class="style-fonts">
      </style></defs><g stroke-linecap="round" transform="translate(50.66657441672794 24.640560126421008) rotate(341.4108794457182 50.35572381984832 68.62473886132528)"><path d="M25.18 0 C43.13 1.05, 64.86 2.93, 75.53 0 C90.36 -1.97, 101.74 11.38, 100.71 25.18 C97.11 54.79, 98.5 86.49, 100.71 112.07 C101.32 131.32, 89.64 138.79, 75.53 137.25 C66.13 135.69, 50.05 134.87, 25.18 137.25 C8.37 137.16, 3.48 129.31, 0 112.07 C2.37 85.75, -2.26 54.04, 0 25.18 C2.09 9.26, 6.42 -0.64, 25.18 0" stroke="none" stroke-width="0" fill="#ffffff"></path><path d="M25.18 0 C44.18 -0.84, 62.84 1.57, 75.53 0 M25.18 0 C35.81 -0.29, 46.91 -1.37, 75.53 0 M75.53 0 C90.61 -1.18, 100.12 7.17, 100.71 25.18 M75.53 0 C91.89 -1.28, 102.03 6.15, 100.71 25.18 M100.71 25.18 C99.64 50.72, 102.95 78.23, 100.71 112.07 M100.71 25.18 C100.75 56.31, 101.17 87.41, 100.71 112.07 M100.71 112.07 C98.93 128.3, 90.59 137.57, 75.53 137.25 M100.71 112.07 C98.53 130.87, 90.54 137.15, 75.53 137.25 M75.53 137.25 C59.34 139, 45.49 135.82, 25.18 137.25 M75.53 137.25 C63.64 137.07, 50.41 137.69, 25.18 137.25 M25.18 137.25 C9.41 135.82, -0.35 129.72, 0 112.07 M25.18 137.25 C9.17 136.63, 1.53 129.86, 0 112.07 M0 112.07 C0.83 94.67, -0.92 72.2, 0 25.18 M0 112.07 C0.8 85.86, 0.29 59.82, 0 25.18 M0 25.18 C1.14 9.23, 8.3 -1.76, 25.18 0 M0 25.18 C1.06 9.23, 10.54 0.23, 25.18 0" stroke="#000000" stroke-width="4" fill="none"></path></g><g stroke-linecap="round"><g transform="translate(37.62823273228162 49.06203643944377) rotate(341.4108794457182 49.28511000397441 0)"><path d="M-0.63 0.83 C16.02 0.57, 82.95 -1.08, 99.38 -1.05 M1.24 0.21 C17.84 0.02, 82.92 0.1, 98.86 -0.06" stroke="#000" stroke-width="4" fill="none"></path></g></g><mask></mask><g stroke-linecap="round" transform="translate(52.05351021698698 52.05544464702808) rotate(341.4108794457182 6.231298296705461 6.231298296705461)"><path d="M7.65 0.56 C8.94 0.84, 10.56 1.79, 11.35 2.67 C12.14 3.56, 12.45 4.71, 12.4 5.89 C12.35 7.06, 11.96 8.63, 11.04 9.71 C10.13 10.78, 8.23 12.05, 6.91 12.33 C5.59 12.61, 4.21 11.98, 3.14 11.37 C2.06 10.77, 0.86 9.9, 0.43 8.7 C0.01 7.49, 0.2 5.39, 0.57 4.13 C0.93 2.86, 1.45 1.68, 2.63 1.09 C3.82 0.5, 6.82 0.65, 7.67 0.59 C8.52 0.54, 7.71 0.7, 7.73 0.76 M6.15 -0.36 C7.28 -0.57, 8.1 0.34, 9.21 1.22 C10.33 2.1, 12.37 3.54, 12.81 4.9 C13.25 6.25, 12.6 8.26, 11.86 9.34 C11.11 10.41, 9.6 10.92, 8.36 11.34 C7.12 11.76, 5.58 12, 4.42 11.86 C3.26 11.72, 2.21 11.43, 1.38 10.49 C0.55 9.56, -0.52 7.52, -0.55 6.23 C-0.58 4.93, 0.13 3.67, 1.19 2.73 C2.24 1.78, 5.14 1.05, 5.79 0.56 C6.44 0.07, 5.22 -0.22, 5.08 -0.2" stroke="none" stroke-width="0" fill="#ffffff"></path><path d="M5.53 0.21 C6.63 -0.09, 8.08 -0.1, 9.14 0.57 C10.21 1.24, 11.47 2.91, 11.89 4.24 C12.31 5.57, 12.18 7.25, 11.67 8.56 C11.15 9.86, 10.02 11.43, 8.8 12.06 C7.58 12.69, 5.59 12.67, 4.36 12.33 C3.14 11.98, 2.24 11.09, 1.45 9.99 C0.67 8.88, -0.46 7.03, -0.34 5.71 C-0.23 4.39, 1.1 2.94, 2.14 2.06 C3.18 1.18, 5.34 0.81, 5.9 0.43 C6.46 0.06, 5.57 -0.2, 5.5 -0.18 M4.16 0.28 C5.37 0.06, 7.13 0.75, 8.33 1.33 C9.53 1.9, 10.75 2.64, 11.38 3.74 C12.01 4.85, 12.3 6.75, 12.14 7.94 C11.97 9.13, 11.42 10.18, 10.39 10.89 C9.36 11.6, 7.53 12.32, 5.96 12.19 C4.39 12.06, 2.05 10.99, 0.96 10.1 C-0.13 9.22, -0.71 8.21, -0.59 6.89 C-0.47 5.57, 0.8 3.3, 1.68 2.21 C2.55 1.11, 4.09 0.75, 4.68 0.34 C5.27 -0.07, 5.19 -0.38, 5.22 -0.25" stroke="#000" stroke-width="4" fill="none"></path></g><g stroke-linecap="round"><g transform="translate(45.15223265994064 72.1826535849932) rotate(341.4108794457182 49.28511000397441 0)"><path d="M-0.6 1.04 C15.68 1.25, 81.89 0.54, 98.48 0.18 M1.28 0.55 C17.32 1.06, 81.3 1.96, 97.48 1.81" stroke="#000" stroke-width="4" fill="none"></path></g></g><mask></mask><g stroke-linecap="round" transform="translate(59.19964698058516 75.09552610273869) rotate(341.4108794457182 6.231298296705461 6.231298296705461)"><path d="M7.63 -0.12 C8.82 -0.07, 10.52 0.92, 11.25 2.04 C11.98 3.16, 12.08 5.22, 12 6.59 C11.91 7.96, 11.56 9.22, 10.72 10.24 C9.89 11.26, 8.26 12.52, 6.97 12.71 C5.68 12.9, 4.19 12.15, 3 11.4 C1.8 10.66, 0.2 9.43, -0.18 8.23 C-0.57 7.03, 0.09 5.39, 0.7 4.21 C1.32 3.02, 2.23 1.74, 3.51 1.11 C4.78 0.48, 7.62 0.5, 8.35 0.42 C9.08 0.33, 7.96 0.47, 7.87 0.61 M6.01 0.55 C7.31 0.37, 8.53 1.08, 9.44 1.63 C10.35 2.19, 11.1 2.8, 11.46 3.89 C11.82 4.97, 11.95 6.75, 11.59 8.14 C11.22 9.54, 10.47 11.51, 9.26 12.26 C8.06 13.01, 5.76 12.89, 4.36 12.64 C2.95 12.4, 1.49 11.82, 0.82 10.8 C0.15 9.77, 0.25 8.02, 0.32 6.5 C0.38 4.98, 0.46 2.75, 1.21 1.67 C1.96 0.6, 4.12 0.18, 4.81 0.05 C5.51 -0.08, 5.26 0.76, 5.39 0.9" stroke="none" stroke-width="0" fill="#ffffff"></path><path d="M6.43 -0.13 C7.73 -0.05, 9.34 0.69, 10.3 1.7 C11.25 2.71, 12.06 4.58, 12.16 5.92 C12.25 7.27, 11.56 8.73, 10.88 9.78 C10.2 10.83, 9.34 11.91, 8.08 12.23 C6.82 12.54, 4.46 12.23, 3.29 11.68 C2.13 11.14, 1.55 10.07, 1.08 8.97 C0.62 7.87, 0.3 6.42, 0.52 5.07 C0.73 3.71, 1.34 1.68, 2.38 0.83 C3.43 -0.03, 6.03 0.11, 6.76 -0.07 C7.49 -0.25, 6.76 -0.29, 6.76 -0.24 M5.9 -0.03 C7.28 -0.18, 9.16 0.71, 10.36 1.53 C11.57 2.34, 12.88 3.54, 13.15 4.84 C13.42 6.14, 12.93 8.17, 11.97 9.33 C11.01 10.49, 8.85 11.28, 7.4 11.77 C5.95 12.27, 4.31 12.8, 3.27 12.31 C2.23 11.82, 1.69 10.05, 1.15 8.84 C0.61 7.64, -0.26 6.43, 0.01 5.08 C0.29 3.73, 1.74 1.56, 2.8 0.77 C3.85 -0.02, 5.69 0.47, 6.35 0.33 C7 0.19, 6.63 -0.18, 6.73 -0.07" stroke="#000" stroke-width="4" fill="none"></path></g><g stroke-linecap="round"><g transform="translate(50.6375449934834 94.8573322442989) rotate(341.4108794457182 49.28511000397441 0)"><path d="M0.38 -1.11 C16.65 -1.26, 81.24 -0.77, 97.55 -0.71 M-0.88 0.92 C15.76 0.9, 83.36 0.58, 99.72 0.46" stroke="#000" stroke-width="4" fill="none"></path></g></g><mask></mask><g stroke-linecap="round" transform="translate(65.06576547488635 97.86580040632083) rotate(341.4108794457182 6.231298296705461 6.231298296705461)"><path d="M4.86 0.04 C6.1 -0.19, 8.25 -0.11, 9.47 0.64 C10.69 1.39, 11.72 3.24, 12.18 4.55 C12.64 5.85, 12.81 7.27, 12.24 8.5 C11.67 9.73, 9.94 11.22, 8.76 11.94 C7.58 12.66, 6.39 13.03, 5.17 12.8 C3.94 12.57, 2.19 11.66, 1.4 10.56 C0.61 9.47, 0.44 7.63, 0.43 6.25 C0.42 4.87, 0.45 3.25, 1.32 2.29 C2.19 1.33, 4.93 0.89, 5.65 0.48 C6.37 0.08, 5.62 -0.24, 5.64 -0.14 M6.54 -0.36 C7.75 -0.42, 9.54 0.55, 10.54 1.73 C11.55 2.9, 12.6 5.21, 12.59 6.67 C12.58 8.13, 11.44 9.43, 10.49 10.5 C9.55 11.57, 8.07 12.82, 6.9 13.1 C5.73 13.38, 4.65 13.02, 3.5 12.17 C2.34 11.33, 0.62 9.39, 0 8.06 C-0.62 6.72, -0.73 5.24, -0.22 4.16 C0.28 3.09, 1.77 2.24, 3.03 1.6 C4.29 0.95, 6.63 0.45, 7.33 0.31 C8.04 0.17, 7.19 0.62, 7.24 0.77" stroke="none" stroke-width="0" fill="#ffffff"></path><path d="M5.49 0.3 C6.72 0.15, 8.22 0.46, 9.38 1.19 C10.55 1.92, 12.11 3.43, 12.46 4.69 C12.81 5.94, 12.03 7.51, 11.49 8.72 C10.96 9.94, 10.38 11.32, 9.27 11.97 C8.16 12.62, 6.26 13.06, 4.86 12.63 C3.45 12.2, 1.69 10.6, 0.85 9.41 C0.01 8.22, -0.28 6.84, -0.19 5.49 C-0.09 4.14, 0.43 2.31, 1.42 1.32 C2.41 0.34, 4.98 -0.15, 5.77 -0.42 C6.55 -0.7, 6.02 -0.46, 6.12 -0.35 M6.91 -0.55 C8.26 -0.67, 9.86 0.31, 10.65 1.18 C11.44 2.06, 11.56 3.29, 11.63 4.69 C11.7 6.09, 11.52 8.42, 11.06 9.6 C10.6 10.78, 10.03 11.33, 8.86 11.77 C7.69 12.22, 5.3 12.77, 4.03 12.28 C2.77 11.8, 1.93 10, 1.25 8.87 C0.57 7.75, -0.24 6.8, -0.05 5.54 C0.15 4.28, 1.31 2.17, 2.43 1.3 C3.54 0.43, 6.13 0.42, 6.66 0.33 C7.19 0.23, 5.55 0.57, 5.58 0.71" stroke="#000" stroke-width="4" fill="none"></path></g><g stroke-linecap="round"><g transform="translate(59.39189606490038 115.75129104063825) rotate(341.4108794457182 49.28511000397441 0)"><path d="M-0.36 -0.73 C16.21 -0.73, 81.75 -0.6, 98.35 -0.67 M1.66 1.5 C18.13 1.71, 81.08 0.85, 97.28 0.52" stroke="#000" stroke-width="4" fill="none"></path></g></g><mask></mask><g stroke-linecap="round" transform="translate(73.6350747353381 118.6507010113682) rotate(341.4108794457182 6.231298296705461 6.231298296705461)"><path d="M6.18 0.29 C7.49 0.23, 9.42 0.55, 10.38 1.38 C11.33 2.21, 11.67 3.9, 11.91 5.29 C12.16 6.69, 12.42 8.53, 11.85 9.74 C11.28 10.94, 9.7 12.09, 8.49 12.51 C7.29 12.94, 5.92 12.78, 4.61 12.3 C3.3 11.82, 1.38 10.72, 0.63 9.61 C-0.11 8.51, -0.09 7.08, 0.12 5.69 C0.32 4.29, 0.84 2.12, 1.89 1.24 C2.94 0.36, 5.6 0.61, 6.4 0.42 C7.2 0.22, 6.64 0.1, 6.69 0.05 M5.45 0.58 C6.67 0.44, 7.91 0.51, 8.94 1.25 C9.98 1.99, 11.09 3.72, 11.66 5.01 C12.23 6.31, 12.82 7.98, 12.34 9.04 C11.86 10.09, 10.11 10.79, 8.79 11.34 C7.46 11.89, 5.64 12.42, 4.4 12.33 C3.16 12.24, 2.05 11.83, 1.33 10.82 C0.61 9.82, 0.05 7.65, 0.1 6.28 C0.14 4.92, 0.64 3.61, 1.6 2.66 C2.55 1.7, 5.28 1, 5.83 0.57 C6.37 0.14, 4.88 0.02, 4.88 0.07" stroke="none" stroke-width="0" fill="#ffffff"></path><path d="M7.31 0.05 C8.6 0.12, 9.59 0.85, 10.53 1.86 C11.46 2.87, 12.78 4.66, 12.94 6.09 C13.09 7.53, 12.39 9.5, 11.45 10.48 C10.5 11.47, 8.67 11.81, 7.28 12 C5.88 12.19, 4.28 12.26, 3.07 11.61 C1.85 10.96, 0.47 9.39, -0.01 8.1 C-0.5 6.81, -0.33 5.13, 0.17 3.85 C0.68 2.58, 1.77 1.15, 3.03 0.46 C4.28 -0.23, 6.99 -0.25, 7.72 -0.3 C8.44 -0.34, 7.49 -0.05, 7.39 0.2 M4.36 -0.29 C5.42 -0.51, 7.34 0.44, 8.69 1.12 C10.05 1.79, 11.95 2.52, 12.5 3.75 C13.05 4.98, 12.43 7.26, 11.98 8.48 C11.52 9.69, 10.93 10.36, 9.78 11.06 C8.63 11.77, 6.42 12.87, 5.08 12.7 C3.74 12.54, 2.52 11.1, 1.75 10.08 C0.99 9.07, 0.65 7.82, 0.5 6.62 C0.35 5.42, -0.05 3.85, 0.84 2.86 C1.72 1.87, 4.96 1.12, 5.8 0.67 C6.63 0.22, 6.01 0.13, 5.84 0.14" stroke="#000" stroke-width="4" fill="none"></path></g><g stroke-linecap="round"><g transform="translate(66.00959300263901 138.73206596422705) rotate(341.4108794457182 49.28511000397441 0)"><path d="M0.69 -1.17 C17.16 -0.98, 82.31 0.4, 98.62 0.45 M-0.41 0.83 C15.92 0.71, 81.33 -1.3, 97.69 -1.43" stroke="#000" stroke-width="4" fill="none"></path></g></g><mask></mask><g stroke-linecap="round" transform="translate(80.48078427567293 141.62871054242595) rotate(341.4108794457182 6.231298296705461 6.231298296705461)"><path d="M6.68 0.29 C7.94 0.48, 10.09 1.51, 11.06 2.54 C12.03 3.58, 12.43 5.21, 12.51 6.49 C12.59 7.78, 12.43 9.26, 11.56 10.27 C10.68 11.27, 8.63 12.2, 7.26 12.52 C5.89 12.84, 4.5 12.89, 3.32 12.18 C2.14 11.47, 0.65 9.52, 0.17 8.27 C-0.3 7.03, -0.06 5.94, 0.45 4.7 C0.97 3.47, 2.05 1.71, 3.27 0.86 C4.49 0.02, 7.12 -0.23, 7.77 -0.37 C8.43 -0.52, 7.35 -0.21, 7.21 -0.02 M6.81 0.84 C8.21 1.01, 10.43 1.89, 11.31 2.72 C12.18 3.55, 12.2 4.59, 12.06 5.84 C11.91 7.09, 11.23 9.01, 10.44 10.21 C9.65 11.42, 8.52 12.81, 7.32 13.09 C6.12 13.36, 4.38 12.56, 3.23 11.87 C2.08 11.18, 0.8 10.15, 0.41 8.95 C0.01 7.74, 0.5 5.99, 0.87 4.62 C1.24 3.25, 1.49 1.45, 2.64 0.73 C3.78 0, 7.02 0.38, 7.73 0.27 C8.43 0.16, 6.86 0.1, 6.86 0.08" stroke="none" stroke-width="0" fill="#ffffff"></path><path d="M6.68 0.06 C8.06 0.08, 9.62 1.05, 10.53 1.84 C11.44 2.62, 11.98 3.56, 12.13 4.79 C12.28 6.01, 12.12 8.06, 11.42 9.2 C10.72 10.34, 9.17 11.22, 7.93 11.63 C6.69 12.04, 5.16 12.12, 3.99 11.67 C2.83 11.21, 1.51 10.05, 0.93 8.9 C0.35 7.76, 0.32 6.04, 0.53 4.8 C0.73 3.55, 1.19 2.16, 2.18 1.44 C3.16 0.72, 5.73 0.67, 6.44 0.5 C7.14 0.34, 6.44 0.52, 6.42 0.46 M5.85 -0.24 C7.18 -0.5, 8.33 0.47, 9.45 1.15 C10.57 1.83, 12.15 2.53, 12.55 3.82 C12.96 5.12, 12.39 7.65, 11.86 8.94 C11.33 10.23, 10.44 10.94, 9.36 11.56 C8.28 12.17, 6.82 12.8, 5.38 12.64 C3.94 12.48, 1.48 11.63, 0.71 10.61 C-0.07 9.59, 0.44 7.97, 0.72 6.52 C0.99 5.08, 1.66 3.01, 2.37 1.93 C3.08 0.85, 4.59 0.47, 4.98 0.06 C5.37 -0.34, 4.62 -0.6, 4.7 -0.5" stroke="#000" stroke-width="4" fill="none"></path></g><g stroke-linecap="round"><g transform="translate(88.24219450178362 158.19830996109084) rotate(0 7.645503431584075 7.645503431584075)"><path d="M0 0 C1.02 2.04, 3.57 9.68, 6.12 12.23 C8.66 14.78, 13.76 14.78, 15.29 15.29 M0 0 C1.02 2.04, 3.57 9.68, 6.12 12.23 C8.66 14.78, 13.76 14.78, 15.29 15.29" stroke="#1971c2" stroke-width="2" fill="none"></path></g></g><mask></mask><g stroke-linecap="round"><g transform="translate(72.95118763861547 173.489316824259) rotate(0 7.645503431584075 -7.645503431584075)"><path d="M0 0 C1.53 -0.51, 6.63 -0.51, 9.17 -3.06 C11.72 -5.61, 14.27 -13.25, 15.29 -15.29 M0 0 C1.53 -0.51, 6.63 -0.51, 9.17 -3.06 C11.72 -5.61, 14.27 -13.25, 15.29 -15.29" stroke="#1971c2" stroke-width="2" fill="none"></path></g></g><mask></mask><g stroke-linecap="round"><g transform="translate(72.95118763861547 173.489316824259) rotate(0 7.645503431584075 7.645503431584075)"><path d="M0 0 C1.53 0.51, 6.63 0.51, 9.17 3.06 C11.72 5.61, 14.27 13.25, 15.29 15.29 M0 0 C1.53 0.51, 6.63 0.51, 9.17 3.06 C11.72 5.61, 14.27 13.25, 15.29 15.29" stroke="#1971c2" stroke-width="2" fill="none"></path></g></g><mask></mask><g stroke-linecap="round"><g transform="translate(103.53320136495176 173.489316824259) rotate(0 -7.645503431584075 7.645503431584075)"><path d="M0 0 C-1.53 0.51, -6.63 0.51, -9.17 3.06 C-11.72 5.61, -14.27 13.25, -15.29 15.29 M0 0 C-1.53 0.51, -6.63 0.51, -9.17 3.06 C-11.72 5.61, -14.27 13.25, -15.29 15.29" stroke="#1971c2" stroke-width="2" fill="none"></path></g></g><mask></mask><g stroke-linecap="round"><g transform="translate(30.79998779296875 12.448382782540193) rotate(0 10.399993896484375 10.399993896484375)"><path d="M0 0 C1.39 2.77, 4.85 13.17, 8.32 16.64 C11.79 20.11, 18.72 20.11, 20.8 20.8 M0 0 C1.39 2.77, 4.85 13.17, 8.32 16.64 C11.79 20.11, 18.72 20.11, 20.8 20.8" stroke="#1971c2" stroke-width="2" fill="none"></path></g></g><mask></mask><g stroke-linecap="round"><g transform="translate(10 33.24837057550894) rotate(0 10.399993896484375 -10.399993896484375)"><path d="M0 0 C2.08 -0.69, 9.01 -0.69, 12.48 -4.16 C15.95 -7.63, 19.41 -18.03, 20.8 -20.8 M0 0 C2.08 -0.69, 9.01 -0.69, 12.48 -4.16 C15.95 -7.63, 19.41 -18.03, 20.8 -20.8" stroke="#1971c2" stroke-width="2" fill="none"></path></g></g><mask></mask><g stroke-linecap="round"><g transform="translate(10 33.24837057550894) rotate(0 10.399993896484375 10.399993896484375)"><path d="M0 0 C2.08 0.69, 9.01 0.69, 12.48 4.16 C15.95 7.63, 19.41 18.03, 20.8 20.8 M0 0 C2.08 0.69, 9.01 0.69, 12.48 4.16 C15.95 7.63, 19.41 18.03, 20.8 20.8" stroke="#1971c2" stroke-width="2" fill="none"></path></g></g><mask></mask><g stroke-linecap="round"><g transform="translate(51.5999755859375 33.24837057550894) rotate(0 -10.399993896484375 10.399993896484375)"><path d="M0 0 C-2.08 0.69, -9.01 0.69, -12.48 4.16 C-15.95 7.63, -19.41 18.03, -20.8 20.8 M0 0 C-2.08 0.69, -9.01 0.69, -12.48 4.16 C-15.95 7.63, -19.41 18.03, -20.8 20.8" stroke="#1971c2" stroke-width="2" fill="none"></path></g></g><mask></mask><g stroke-linecap="round" transform="translate(65.50702188554283 28.527524418894927) rotate(341.4108794457182 50.35572381984832 68.62473886132531)"><path d="M25.18 0 C37.21 2.48, 45.67 2.58, 75.53 0 C89.47 3.46, 103.53 9.5, 100.71 25.18 C98.07 55.34, 102.85 85.52, 100.71 112.07 C103.65 131.15, 92.7 137.06, 75.53 137.25 C60.97 136.23, 44.92 141.05, 25.18 137.25 C10.73 134.87, 2.73 129.42, 0 112.07 C-0.46 88.72, -2.62 68.93, 0 25.18 C0.25 6.53, 7.15 -1.64, 25.18 0" stroke="none" stroke-width="0" fill="#ffffff"></path><path d="M25.18 0 C37.46 0.21, 52.58 -0.95, 75.53 0 M25.18 0 C35.04 0.55, 46.34 -0.23, 75.53 0 M75.53 0 C92.23 -1.42, 101.3 10.17, 100.71 25.18 M75.53 0 C92.8 0.61, 100.06 10.62, 100.71 25.18 M100.71 25.18 C100.91 54.24, 101.82 80.56, 100.71 112.07 M100.71 25.18 C101.16 60.32, 101.57 94, 100.71 112.07 M100.71 112.07 C99.8 129, 93.5 136.26, 75.53 137.25 M100.71 112.07 C100.19 126.63, 90.48 135.03, 75.53 137.25 M75.53 137.25 C64.95 137.88, 51.51 137.29, 25.18 137.25 M75.53 137.25 C55.78 136.9, 35.72 136.72, 25.18 137.25 M25.18 137.25 C9.61 138.69, -1.31 128.58, 0 112.07 M25.18 137.25 C9.97 135.3, -0.46 129.61, 0 112.07 M0 112.07 C-1.05 85.75, -1.93 57.48, 0 25.18 M0 112.07 C1.39 87.34, 1.49 60.7, 0 25.18 M0 25.18 C1.38 10.08, 7.12 1.71, 25.18 0 M0 25.18 C1.52 7.57, 10.23 -0.38, 25.18 0" stroke="#000000" stroke-width="4" fill="none"></path></g><g stroke-linecap="round"><g transform="translate(52.59223018910461 52.93454496996554) rotate(341.4108794457182 49.28511000397441 0)"><path d="M-0.02 -0.59 C16.39 -0.6, 81.35 -1.17, 97.86 -1.18 M-1.49 1.72 C15.36 1.91, 83.52 -0.02, 100.2 -0.27" stroke="#000" stroke-width="4" fill="none"></path></g></g><mask></mask><g stroke-linecap="round" transform="translate(66.89395768580152 55.942408939502) rotate(341.4108794457182 6.231298296705461 6.231298296705461)"><path d="M6.25 -0.04 C7.47 -0.17, 8.92 0.62, 9.88 1.39 C10.83 2.17, 11.66 3.4, 11.97 4.62 C12.28 5.84, 12.22 7.42, 11.74 8.71 C11.25 10, 10.22 11.7, 9.05 12.35 C7.88 13, 6.11 13.01, 4.71 12.61 C3.31 12.22, 1.37 11.21, 0.67 9.96 C-0.04 8.71, 0.18 6.47, 0.47 5.14 C0.76 3.81, 1.52 2.79, 2.42 2 C3.32 1.21, 5.26 0.79, 5.88 0.4 C6.49 0.02, 6.15 -0.34, 6.11 -0.32 M7.33 -0.57 C8.64 -0.4, 10.5 1.32, 11.39 2.45 C12.29 3.58, 12.69 5.02, 12.67 6.22 C12.65 7.41, 12.17 8.68, 11.27 9.64 C10.37 10.6, 8.47 11.69, 7.26 11.96 C6.05 12.23, 5.03 11.7, 4.01 11.26 C3 10.82, 1.79 10.42, 1.18 9.3 C0.56 8.18, 0.09 5.78, 0.31 4.53 C0.53 3.28, 1.33 2.55, 2.5 1.78 C3.68 1, 6.7 0.24, 7.36 -0.13 C8.02 -0.51, 6.45 -0.69, 6.46 -0.48" stroke="none" stroke-width="0" fill="#ffffff"></path><path d="M7 0.47 C8.28 0.54, 9.6 0.96, 10.45 1.87 C11.3 2.79, 11.88 4.58, 12.09 5.94 C12.31 7.29, 12.42 8.96, 11.72 9.99 C11.02 11.03, 9.17 11.81, 7.88 12.13 C6.59 12.46, 5.22 12.57, 3.99 11.96 C2.76 11.34, 1.11 9.65, 0.5 8.45 C-0.12 7.24, -0.12 6.01, 0.31 4.74 C0.73 3.47, 1.85 1.54, 3.04 0.83 C4.23 0.12, 6.84 0.6, 7.45 0.47 C8.06 0.34, 6.72 0, 6.71 0.04 M7.47 -0.32 C8.77 -0.37, 9.91 0.36, 10.64 1.28 C11.37 2.21, 11.85 3.66, 11.86 5.22 C11.86 6.78, 11.3 9.4, 10.66 10.64 C10.02 11.89, 9.2 12.56, 8.01 12.69 C6.82 12.83, 4.77 12.02, 3.5 11.46 C2.23 10.9, 0.86 10.58, 0.39 9.33 C-0.07 8.08, 0.29 5.37, 0.71 3.97 C1.13 2.57, 1.88 1.62, 2.91 0.93 C3.94 0.25, 6.12 -0.1, 6.88 -0.14 C7.64 -0.18, 7.54 0.6, 7.47 0.72" stroke="#000" stroke-width="4" fill="none"></path></g><g stroke-linecap="round"><g transform="translate(59.66543677623815 76.1787334384793) rotate(341.4108794457182 49.28511000397441 0)"><path d="M0.5 -0.69 C16.99 -0.45, 81.72 0.29, 98.24 0.3 M-0.7 1.55 C15.67 1.53, 80.43 -1.46, 97.12 -1.66" stroke="#000" stroke-width="4" fill="none"></path></g></g><mask></mask><g stroke-linecap="round" transform="translate(74.0400944493997 78.98249039521255) rotate(341.4108794457182 6.231298296705461 6.231298296705461)"><path d="M5.75 -0.22 C7.02 -0.42, 8.92 0.07, 10.08 1 C11.25 1.93, 12.41 3.94, 12.74 5.38 C13.06 6.82, 12.77 8.48, 12.01 9.64 C11.25 10.81, 9.4 12.02, 8.17 12.38 C6.95 12.74, 5.8 12.25, 4.66 11.82 C3.52 11.39, 2.13 10.83, 1.34 9.81 C0.54 8.79, -0.22 7.14, -0.11 5.7 C0.01 4.25, 1.01 2.08, 2.03 1.11 C3.05 0.15, 5.2 0.01, 6.03 -0.09 C6.85 -0.2, 6.91 0.29, 6.96 0.47 M5.24 0.6 C6.34 0.14, 8.14 0.05, 9.18 0.56 C10.23 1.07, 10.93 2.48, 11.5 3.66 C12.07 4.84, 12.83 6.23, 12.6 7.63 C12.36 9.02, 11.29 11.24, 10.09 12.03 C8.88 12.82, 6.83 12.52, 5.37 12.35 C3.92 12.18, 2.16 12.05, 1.36 11.02 C0.55 10, 0.6 7.77, 0.54 6.21 C0.48 4.66, 0.16 2.64, 1.02 1.7 C1.87 0.77, 5.08 0.76, 5.66 0.61 C6.25 0.46, 4.6 0.84, 4.53 0.81" stroke="none" stroke-width="0" fill="#ffffff"></path><path d="M7.23 0.3 C8.61 0.52, 10.73 1.54, 11.63 2.55 C12.52 3.56, 12.64 5.03, 12.59 6.37 C12.53 7.71, 12.24 9.62, 11.3 10.57 C10.37 11.52, 8.39 11.89, 6.99 12.08 C5.6 12.27, 4.01 12.41, 2.94 11.7 C1.88 11, 0.92 9.1, 0.58 7.86 C0.25 6.62, 0.54 5.48, 0.94 4.26 C1.35 3.04, 1.77 1.22, 3 0.55 C4.23 -0.11, 7.45 0.33, 8.33 0.27 C9.21 0.21, 8.4 0.03, 8.29 0.17 M4.86 -0.67 C6.05 -0.68, 7.8 0.72, 9.09 1.63 C10.38 2.54, 12.1 3.66, 12.6 4.78 C13.1 5.9, 12.71 7.07, 12.1 8.35 C11.5 9.63, 10.12 11.89, 8.98 12.48 C7.84 13.07, 6.54 12.32, 5.27 11.9 C3.99 11.47, 2.21 10.96, 1.31 9.94 C0.4 8.91, -0.28 6.96, -0.14 5.72 C0 4.49, 1.27 3.49, 2.12 2.53 C2.97 1.57, 4.33 0.44, 4.97 -0.06 C5.62 -0.55, 5.92 -0.63, 5.99 -0.46" stroke="#000" stroke-width="4" fill="none"></path></g><g stroke-linecap="round"><g transform="translate(65.6302876957393 98.74853313906254) rotate(341.4108794457182 49.28511000397441 0)"><path d="M1.05 -0.62 C17.53 -0.82, 82.2 -1.13, 98.52 -0.85 M0.15 1.66 C16.49 1.57, 81.17 0.64, 97.54 0.24" stroke="#000" stroke-width="4" fill="none"></path></g></g><mask></mask><g stroke-linecap="round" transform="translate(79.90621294370158 101.75276469879458) rotate(341.4108794457182 6.231298296705461 6.231298296705461)"><path d="M5.92 0.42 C7.23 0.33, 8.99 0.73, 9.99 1.46 C10.98 2.2, 11.48 3.65, 11.88 4.81 C12.27 5.97, 12.77 7.18, 12.37 8.4 C11.96 9.62, 10.73 11.43, 9.44 12.14 C8.14 12.86, 5.98 13.13, 4.59 12.69 C3.21 12.25, 1.97 10.65, 1.14 9.49 C0.31 8.34, -0.52 6.96, -0.39 5.75 C-0.26 4.55, 0.91 3.16, 1.9 2.26 C2.9 1.36, 4.98 0.63, 5.58 0.36 C6.17 0.08, 5.37 0.54, 5.46 0.62 M6.69 -0.22 C8.03 -0.16, 10.34 0.42, 11.4 1.56 C12.47 2.7, 13.12 5.19, 13.07 6.61 C13.03 8.04, 12.12 9.05, 11.15 10.12 C10.17 11.19, 8.45 12.8, 7.21 13.03 C5.98 13.26, 4.93 12.38, 3.74 11.51 C2.55 10.64, 0.52 8.96, 0.06 7.82 C-0.4 6.68, 0.59 5.74, 1 4.68 C1.41 3.62, 1.48 2.27, 2.54 1.45 C3.59 0.64, 6.44 -0.1, 7.34 -0.22 C8.23 -0.34, 7.89 0.6, 7.88 0.73" stroke="none" stroke-width="0" fill="#ffffff"></path><path d="M6.82 -0.12 C8.1 -0.11, 10.13 0.99, 11.06 1.89 C11.99 2.79, 12.32 3.93, 12.39 5.28 C12.45 6.62, 12.15 8.84, 11.45 9.96 C10.76 11.07, 9.44 11.59, 8.22 11.99 C7.01 12.38, 5.47 12.87, 4.14 12.34 C2.81 11.81, 0.83 10.06, 0.26 8.8 C-0.32 7.53, 0.25 6.07, 0.69 4.76 C1.12 3.45, 1.81 1.69, 2.84 0.95 C3.87 0.21, 6.23 0.47, 6.87 0.32 C7.52 0.18, 6.82 0.07, 6.72 0.06 M5.16 0.56 C6.48 0.03, 8 -0.31, 9.11 0.33 C10.23 0.98, 11.25 3.21, 11.84 4.42 C12.43 5.62, 12.99 6.41, 12.64 7.56 C12.29 8.72, 10.95 10.58, 9.74 11.36 C8.54 12.13, 6.67 12.28, 5.41 12.24 C4.15 12.19, 3.17 12.03, 2.19 11.09 C1.21 10.14, -0.4 8.07, -0.48 6.54 C-0.56 5.01, 0.87 2.93, 1.72 1.92 C2.56 0.9, 4.07 0.61, 4.59 0.43 C5.11 0.24, 4.8 0.77, 4.84 0.8" stroke="#000" stroke-width="4" fill="none"></path></g><g stroke-linecap="round"><g transform="translate(74.02096204129589 119.68750280640921) rotate(341.4108794457182 49.28511000397441 0)"><path d="M0.35 1.07 C16.83 1.26, 82.51 0.3, 98.82 0.32 M-0.92 0.58 C15.43 0.48, 81.64 -1.45, 98.01 -1.64" stroke="#000" stroke-width="4" fill="none"></path></g></g><mask></mask><g stroke-linecap="round" transform="translate(88.47552220415321 122.5376653038424) rotate(341.4108794457182 6.231298296705461 6.231298296705461)"><path d="M7.07 0.46 C8.35 0.49, 10.51 0.94, 11.48 1.98 C12.45 3.01, 13.01 5.2, 12.89 6.65 C12.77 8.11, 11.73 9.82, 10.77 10.7 C9.81 11.59, 8.5 11.81, 7.14 11.94 C5.79 12.07, 3.74 12.04, 2.63 11.49 C1.53 10.93, 0.93 9.79, 0.54 8.6 C0.15 7.41, -0.08 5.57, 0.29 4.35 C0.67 3.13, 1.51 1.94, 2.8 1.27 C4.09 0.6, 7.14 0.47, 8.03 0.32 C8.93 0.16, 8.28 0.3, 8.17 0.32 M6.22 0.51 C7.41 0.4, 8.85 0.26, 9.82 1.04 C10.79 1.83, 11.59 3.95, 12.03 5.22 C12.47 6.48, 13.02 7.63, 12.45 8.63 C11.88 9.63, 9.77 10.52, 8.59 11.21 C7.41 11.9, 6.67 12.89, 5.35 12.76 C4.03 12.63, 1.55 11.66, 0.68 10.44 C-0.19 9.22, -0.16 6.81, 0.13 5.47 C0.43 4.13, 1.51 3.34, 2.45 2.41 C3.4 1.47, 5.32 0.18, 5.81 -0.13 C6.3 -0.43, 5.39 0.51, 5.37 0.58" stroke="none" stroke-width="0" fill="#ffffff"></path><path d="M5.75 -0.31 C6.94 -0.46, 8.82 0.61, 9.96 1.41 C11.1 2.21, 12.18 3.15, 12.57 4.48 C12.96 5.81, 12.99 8.16, 12.3 9.38 C11.6 10.6, 9.62 11.29, 8.41 11.78 C7.19 12.26, 6.19 12.66, 5.01 12.28 C3.83 11.9, 2.15 10.56, 1.32 9.49 C0.5 8.42, 0.01 7.19, 0.07 5.88 C0.12 4.57, 0.73 2.69, 1.65 1.64 C2.57 0.59, 4.9 -0.09, 5.61 -0.4 C6.32 -0.71, 5.76 -0.44, 5.91 -0.22 M6.93 0.75 C8.25 0.82, 10.31 0.74, 11.24 1.6 C12.16 2.45, 12.53 4.51, 12.5 5.88 C12.47 7.25, 11.78 8.65, 11.04 9.82 C10.3 10.98, 9.42 12.54, 8.06 12.85 C6.7 13.16, 4.06 12.47, 2.88 11.67 C1.71 10.86, 1.46 9.17, 1 8 C0.54 6.83, -0.19 5.71, 0.13 4.62 C0.45 3.54, 1.79 2.28, 2.93 1.49 C4.07 0.7, 6.24 0.18, 6.95 -0.12 C7.66 -0.43, 7.26 -0.45, 7.2 -0.33" stroke="#000" stroke-width="4" fill="none"></path></g><g stroke-linecap="round"><g transform="translate(81.14049054074985 142.51914306618193) rotate(341.4108794457182 49.28511000397441 0)"><path d="M-0.34 1.16 C16.1 1.09, 82.51 0.06, 98.86 -0.1 M1.68 0.73 C17.96 0.82, 81.64 1.24, 98.07 1.38" stroke="#000" stroke-width="4" fill="none"></path></g></g><mask></mask><g stroke-linecap="round" transform="translate(95.32123174448816 145.5156748348997) rotate(341.4108794457182 6.231298296705461 6.231298296705461)"><path d="M7.73 0.42 C8.89 0.68, 10.04 1.72, 10.82 2.62 C11.59 3.51, 12.42 4.53, 12.38 5.78 C12.34 7.03, 11.42 8.98, 10.61 10.13 C9.8 11.28, 8.78 12.38, 7.52 12.69 C6.25 12.99, 4.27 12.61, 3.01 11.97 C1.76 11.33, 0.36 10.14, -0.02 8.85 C-0.39 7.57, 0.19 5.6, 0.76 4.26 C1.34 2.92, 2.33 1.56, 3.42 0.82 C4.52 0.07, 6.67 -0.19, 7.34 -0.23 C8.01 -0.27, 7.49 0.36, 7.42 0.59 M7.02 0.76 C8.37 0.86, 10.63 1.2, 11.48 1.99 C12.33 2.78, 12.07 4.06, 12.11 5.5 C12.15 6.95, 12.59 9.42, 11.72 10.65 C10.85 11.89, 8.31 12.8, 6.91 12.92 C5.51 13.04, 4.28 12.03, 3.31 11.37 C2.34 10.72, 1.56 10.2, 1.09 8.97 C0.63 7.75, 0.26 5.31, 0.55 4.03 C0.83 2.75, 1.67 2.03, 2.79 1.3 C3.91 0.58, 6.58 -0.07, 7.27 -0.31 C7.97 -0.55, 6.9 -0.19, 6.94 -0.14" stroke="none" stroke-width="0" fill="#ffffff"></path><path d="M5.51 -0.16 C6.82 -0.41, 8.83 0.6, 9.87 1.29 C10.91 1.99, 11.3 2.82, 11.74 4.02 C12.19 5.22, 12.93 7.25, 12.56 8.49 C12.19 9.72, 10.78 10.74, 9.54 11.43 C8.3 12.13, 6.51 12.88, 5.12 12.65 C3.72 12.42, 2.1 11.22, 1.17 10.07 C0.23 8.92, -0.46 7.14, -0.48 5.76 C-0.51 4.39, -0.04 2.73, 1.02 1.83 C2.08 0.92, 5.06 0.59, 5.89 0.32 C6.71 0.06, 6.07 0.19, 5.98 0.23 M7.72 0.11 C8.87 0.37, 10.22 1.15, 11.09 2.32 C11.95 3.49, 13.04 5.79, 12.91 7.14 C12.77 8.49, 11.18 9.63, 10.27 10.41 C9.36 11.18, 8.73 11.57, 7.46 11.79 C6.19 12, 3.84 12.23, 2.65 11.68 C1.46 11.14, 0.7 9.86, 0.33 8.52 C-0.04 7.17, -0.11 4.98, 0.44 3.58 C0.99 2.19, 2.48 0.73, 3.63 0.15 C4.78 -0.43, 6.76 -0.01, 7.33 0.11 C7.91 0.23, 6.97 0.69, 7.1 0.88" stroke="#000" stroke-width="4" fill="none"></path></g><g stroke-linecap="round"><g transform="translate(170.9726953449681 87.1255812417831) rotate(0 7.645503431584075 7.645503431584075)"><path d="M0 0 C1.02 2.04, 3.57 9.68, 6.12 12.23 C8.66 14.78, 13.76 14.78, 15.29 15.29 M0 0 C1.02 2.04, 3.57 9.68, 6.12 12.23 C8.66 14.78, 13.76 14.78, 15.29 15.29" stroke="#1971c2" stroke-width="2" fill="none"></path></g></g><mask></mask><g stroke-linecap="round"><g transform="translate(155.68168848179994 102.41658810495124) rotate(0 7.645503431584075 -7.645503431584075)"><path d="M0 0 C1.53 -0.51, 6.63 -0.51, 9.17 -3.06 C11.72 -5.61, 14.27 -13.25, 15.29 -15.29 M0 0 C1.53 -0.51, 6.63 -0.51, 9.17 -3.06 C11.72 -5.61, 14.27 -13.25, 15.29 -15.29" stroke="#1971c2" stroke-width="2" fill="none"></path></g></g><mask></mask><g stroke-linecap="round"><g transform="translate(155.68168848179994 102.41658810495124) rotate(0 7.645503431584075 7.645503431584075)"><path d="M0 0 C1.53 0.51, 6.63 0.51, 9.17 3.06 C11.72 5.61, 14.27 13.25, 15.29 15.29 M0 0 C1.53 0.51, 6.63 0.51, 9.17 3.06 C11.72 5.61, 14.27 13.25, 15.29 15.29" stroke="#1971c2" stroke-width="2" fill="none"></path></g></g><mask></mask><g stroke-linecap="round"><g transform="translate(186.26370220813624 102.41658810495124) rotate(0 -7.645503431584075 7.645503431584075)"><path d="M0 0 C-1.53 0.51, -6.63 0.51, -9.17 3.06 C-11.72 5.61, -14.27 13.25, -15.29 15.29 M0 0 C-1.53 0.51, -6.63 0.51, -9.17 3.06 C-11.72 5.61, -14.27 13.25, -15.29 15.29" stroke="#1971c2" stroke-width="2" fill="none"></path></g></g><mask></mask><g stroke-linecap="round"><g transform="translate(140.97947212610438 10) rotate(0 4.89102756047464 4.891027560474669)"><path d="M0 0 C0.65 1.3, 2.28 6.2, 3.91 7.83 C5.54 9.46, 8.8 9.46, 9.78 9.78 M0 0 C0.65 1.3, 2.28 6.2, 3.91 7.83 C5.54 9.46, 8.8 9.46, 9.78 9.78" stroke="#1971c2" stroke-width="2" fill="none"></path></g></g><mask></mask><g stroke-linecap="round"><g transform="translate(131.1974170051551 19.782055120949337) rotate(0 4.89102756047464 -4.89102756047464)"><path d="M0 0 C0.98 -0.33, 4.24 -0.33, 5.87 -1.96 C7.5 -3.59, 9.13 -8.48, 9.78 -9.78 M0 0 C0.98 -0.33, 4.24 -0.33, 5.87 -1.96 C7.5 -3.59, 9.13 -8.48, 9.78 -9.78" stroke="#1971c2" stroke-width="2" fill="none"></path></g></g><mask></mask><g stroke-linecap="round"><g transform="translate(131.1974170051551 19.782055120949337) rotate(0 4.89102756047464 4.89102756047464)"><path d="M0 0 C0.98 0.33, 4.24 0.33, 5.87 1.96 C7.5 3.59, 9.13 8.48, 9.78 9.78 M0 0 C0.98 0.33, 4.24 0.33, 5.87 1.96 C7.5 3.59, 9.13 8.48, 9.78 9.78" stroke="#1971c2" stroke-width="2" fill="none"></path></g></g><mask></mask><g stroke-linecap="round"><g transform="translate(150.76152724705366 19.782055120949337) rotate(0 -4.89102756047464 4.89102756047464)"><path d="M0 0 C-0.98 0.33, -4.24 0.33, -5.87 1.96 C-7.5 3.59, -9.13 8.48, -9.78 9.78 M0 0 C-0.98 0.33, -4.24 0.33, -5.87 1.96 C-7.5 3.59, -9.13 8.48, -9.78 9.78" stroke="#1971c2" stroke-width="2" fill="none"></path></g></g><mask></mask></svg>