<?xml version="1.0" standalone="no"?>
<!DOCTYPE svg PUBLIC "-//W3C//DTD SVG 1.1//EN" "http://www.w3.org/Graphics/SVG/1.1/DTD/svg11.dtd">
<svg version="1.1" xmlns="http://www.w3.org/2000/svg" viewBox="0 0 189.27258684903188 193.01232464762285" width="189.27258684903188" height="193.01232464762285" filter="invert(93%) hue-rotate(180deg)"><!-- svg-source:excalidraw --><metadata></metadata><defs><style class="style-fonts">
      </style></defs><g stroke-linecap="round" transform="translate(49.80181501412028 25.52551250149861) rotate(334.3027213889029 51.95394760625379 70.80279691836782)"><path d="M25.98 0 C33.91 0.74, 47.7 -2.74, 77.93 0 C95.86 1.42, 100.4 11.43, 103.91 25.98 C101.74 60.93, 101.54 91.62, 103.91 115.63 C104.62 136.34, 92.77 139.91, 77.93 141.61 C56.94 141.67, 40.44 138.51, 25.98 141.61 C6.82 144.06, 0.55 136.54, 0 115.63 C1.16 83.41, 0.73 41.05, 0 25.98 C-3.01 7.42, 9.7 0.11, 25.98 0" stroke="none" stroke-width="0" fill="#edf2f9"></path><path d="M25.98 0 C39.65 0.81, 58.16 -1.7, 77.93 0 M25.98 0 C46.28 0.07, 66 -0.21, 77.93 0 M77.93 0 C95.59 0.77, 103.36 7.44, 103.91 25.98 M77.93 0 C96.09 1.09, 105.99 10.87, 103.91 25.98 M103.91 25.98 C104.65 47.09, 104.32 71.89, 103.91 115.63 M103.91 25.98 C104.26 48.96, 103.97 72.12, 103.91 115.63 M103.91 115.63 C105.61 134.68, 95.94 139.91, 77.93 141.61 M103.91 115.63 C104.58 133.37, 97.5 141.88, 77.93 141.61 M77.93 141.61 C59.06 143.18, 42.19 140.23, 25.98 141.61 M77.93 141.61 C66.38 141.77, 53.59 141.19, 25.98 141.61 M25.98 141.61 C8.99 142.59, 0.06 131.77, 0 115.63 M25.98 141.61 C7.88 141.35, 0.82 132.72, 0 115.63 M0 115.63 C-0.77 80.72, -1.02 43.16, 0 25.98 M0 115.63 C-0.41 90.89, -0.76 67.15, 0 25.98 M0 25.98 C1.71 9.82, 9.08 -1.02, 25.98 0 M0 25.98 C1.02 10.01, 9.57 -0.82, 25.98 0" stroke="#000000" stroke-width="4" fill="none"></path></g><g stroke-linecap="round" transform="translate(25.39583624696172 32.77435377162408) rotate(334.3027213889029 52.13977672888382 11.964372019130366)"><path d="M5.98 0 C34.91 0, 63.84 0, 98.3 0 C102.29 0, 104.28 1.99, 104.28 5.98 C104.28 9, 104.28 12.02, 104.28 17.95 C104.28 21.93, 102.29 23.93, 98.3 23.93 C78.75 23.93, 59.21 23.93, 5.98 23.93 C1.99 23.93, 0 21.93, 0 17.95 C0 14.87, 0 11.8, 0 5.98 C0 1.99, 1.99 0, 5.98 0" stroke="none" stroke-width="0" fill="#f48284"></path><path d="M5.98 0 C31.84 0, 57.69 0, 98.3 0 M5.98 0 C39.2 0, 72.42 0, 98.3 0 M98.3 0 C102.29 0, 104.28 1.99, 104.28 5.98 M98.3 0 C102.29 0, 104.28 1.99, 104.28 5.98 M104.28 5.98 C104.28 8.72, 104.28 11.46, 104.28 17.95 M104.28 5.98 C104.28 8.75, 104.28 11.51, 104.28 17.95 M104.28 17.95 C104.28 21.93, 102.29 23.93, 98.3 23.93 M104.28 17.95 C104.28 21.93, 102.29 23.93, 98.3 23.93 M98.3 23.93 C69.86 23.93, 41.42 23.93, 5.98 23.93 M98.3 23.93 C76.41 23.93, 54.52 23.93, 5.98 23.93 M5.98 23.93 C1.99 23.93, 0 21.93, 0 17.95 M5.98 23.93 C1.99 23.93, 0 21.93, 0 17.95 M0 17.95 C0 14.98, 0 12.01, 0 5.98 M0 17.95 C0 14.34, 0 10.73, 0 5.98 M0 5.98 C0 1.99, 1.99 0, 5.98 0 M0 5.98 C0 1.99, 1.99 0, 5.98 0" stroke="#000" stroke-width="4" fill="none"></path></g><g stroke-linecap="round"><g transform="translate(39.542514854938304 72.38104796924489) rotate(334.3027213889029 50.13792336807046 -0.19180780326118452)"><path d="M-1.08 1.09 C15.63 1.04, 83.79 0.5, 100.68 0.33 M0.55 0.61 C17.1 0.16, 83.45 -0.97, 99.95 -1.41" stroke="#000" stroke-width="4" fill="none"></path></g></g><mask></mask><g stroke-linecap="round"><g transform="translate(47.3653717826536 87.97494802257904) rotate(334.3027213889029 50.470169015795136 0.1620674801644384)"><path d="M0.41 0.72 C17.41 0.67, 84.3 0.83, 100.94 0.78 M-0.84 0.05 C16.1 0.15, 83.33 -1.4, 100 -1.1" stroke="#000" stroke-width="4" fill="none"></path></g></g><mask></mask><g stroke-linecap="round"><g transform="translate(55.000537724219726 104.98286965680592) rotate(334.3027213889029 51.364902370596155 -0.08356457860776345)"><path d="M0 0.46 C16.94 0.33, 84.9 -0.02, 102.05 -0.05 M-1.45 -0.35 C15.84 -0.32, 87.12 1.79, 104.41 1.55" stroke="#000" stroke-width="4" fill="none"></path></g></g><mask></mask><g stroke-linecap="round"><g transform="translate(64.41243353976995 120.54416986060374) rotate(334.3027213889029 51.364902370596155 -0.08356457860776345)"><path d="M-0.68 0.12 C16.48 0.09, 85.75 0.47, 102.93 0.3 M1.16 -0.86 C18.18 -1.3, 85.38 -1.73, 102.09 -1.58" stroke="#000" stroke-width="4" fill="none"></path></g></g><mask></mask><g stroke-linecap="round"><g transform="translate(72.77326071644859 140.39500877517463) rotate(334.3027213889029 51.364902370596155 -0.08356457860776345)"><path d="M0.2 0.46 C17.38 0.29, 85.24 -0.89, 102.4 -0.9 M-1.15 -0.34 C15.9 -0.38, 83.98 0.47, 101.28 0.25" stroke="#000" stroke-width="4" fill="none"></path></g></g><mask></mask><g stroke-linecap="round"><g transform="translate(80.07318463814397 64.48591942328738) rotate(334.3027213889029 -0.29300679607854363 57.29095473663813)"><path d="M-0.33 -0.73 C-0.39 18.38, -0.28 95.74, -0.15 115.15 M1.7 1.49 C1.5 20.21, -0.63 94.58, -0.86 113.33" stroke="#000" stroke-width="4" fill="none"></path></g></g><mask></mask><g stroke-linecap="round"><g transform="translate(42.594671953983266 37.92791792764933) rotate(334.3027213889029 0.12468871193163977 7.795125117862824)"><path d="M0.2 0.26 C0.35 3, 0.79 13.58, 0.75 16.12 M-0.36 -0.08 C-0.22 2.55, 0.6 12.74, 0.57 15.42" stroke="#000" stroke-width="4" fill="none"></path></g></g><mask></mask><g stroke-linecap="round"><g transform="translate(56.76479471985783 30.64648832883381) rotate(334.3027213889029 0.12468871193163977 7.795125117862824)"><path d="M0.5 0.53 C0.46 3.07, 0.07 12.94, -0.04 15.5 M0.09 0.32 C0.21 2.93, 0.9 13.72, 1.04 16.15" stroke="#000" stroke-width="4" fill="none"></path></g></g><mask></mask><g stroke-linecap="round"><g transform="translate(70.45509353204022 24.612848841263826) rotate(334.3027213889029 0.12468871193163977 7.795125117862824)"><path d="M-0.29 -0.09 C-0.4 2.46, -0.18 13.2, -0.14 15.84 M0.56 -0.62 C0.58 2, 1.08 12.43, 0.89 15" stroke="#000" stroke-width="4" fill="none"></path></g></g><mask></mask><g stroke-linecap="round"><g transform="translate(84.37237718345875 17.8280433980907) rotate(334.3027213889029 0.12468871193163977 7.795125117862824)"><path d="M-0.39 0.25 C-0.35 2.89, -0.22 13.22, -0.04 15.75 M0.41 -0.1 C0.66 2.37, 1.02 12.2, 1.04 14.86" stroke="#000" stroke-width="4" fill="none"></path></g></g><mask></mask><g stroke-linecap="round"><g transform="translate(97.23764556900494 10.920361026568571) rotate(334.3027213889029 0.12468871193163977 7.795125117862824)"><path d="M-0.29 0.16 C-0.11 2.68, 0.55 12.88, 0.68 15.39 M0.56 -0.24 C0.74 2.34, 0.52 13.34, 0.48 15.98" stroke="#000" stroke-width="4" fill="none"></path></g></g><mask></mask><g stroke-linecap="round"><g transform="translate(59.495638198525626 168.9310620014075) rotate(287.6844493410965 0.16666550562786142 6.366622314976155)" fill-rule="evenodd"><path d="M0 0 L6.2 6.27 L-5.87 12.73 L0 0" stroke="none" stroke-width="0" fill="#e8d18c" fill-rule="evenodd"></path><path d="M0 0 C2.02 2.04, 4.05 4.09, 6.2 6.27 M0 0 C1.89 1.91, 3.78 3.82, 6.2 6.27 M6.2 6.27 C2 8.52, -2.19 10.76, -5.87 12.73 M6.2 6.27 C2.34 8.34, -1.53 10.41, -5.87 12.73 M-5.87 12.73 C-3.59 7.8, -1.32 2.87, 0 0 M-5.87 12.73 C-3.77 8.18, -1.67 3.63, 0 0 M0 0 C0 0, 0 0, 0 0 M0 0 C0 0, 0 0, 0 0" stroke="transparent" stroke-width="1" fill="none"></path></g></g><mask></mask><g stroke-linecap="round"><g transform="translate(61.67117518984253 177.41958167505067) rotate(287.6844493410965 0 1.5531002917755359)" fill-rule="evenodd"><path d="M0 0 L1.61 1.71 L-1.61 3.11" stroke="none" stroke-width="0" fill="#495057" fill-rule="evenodd"></path><path d="M0 0 C0.58 0.62, 1.16 1.24, 1.61 1.71 M0 0 C0.45 0.48, 0.89 0.95, 1.61 1.71 M1.61 1.71 C0.4 2.24, -0.8 2.76, -1.61 3.11 M1.61 1.71 C0.77 2.07, -0.06 2.44, -1.61 3.11 M-1.61 3.11 C-1.07 2.06, -0.53 1.02, 0 0 M-1.61 3.11 C-1.08 2.08, -0.55 1.06, 0 0" stroke="transparent" stroke-width="1" fill="none"></path></g></g><mask></mask><g stroke-linecap="round"><g transform="translate(1.1907169604606906 157.44757657964004) rotate(287.6844493410965 37.35107628802075 -28.120915581079828)" fill-rule="evenodd"><path d="M0 0 L6 5.87 L74.7 -55.61 L68.5 -62.11 L0 0" stroke="none" stroke-width="0" fill="#fab005" fill-rule="evenodd"></path><path d="M0 0 C1.35 1.32, 2.69 2.63, 6 5.87 M0 0 C1.64 1.6, 3.28 3.2, 6 5.87 M6 5.87 C31.3 -16.77, 56.61 -39.42, 74.7 -55.61 M6 5.87 C32.12 -17.5, 58.24 -40.87, 74.7 -55.61 M74.7 -55.61 C72.96 -57.43, 71.22 -59.26, 68.5 -62.11 M74.7 -55.61 C72.29 -58.13, 69.89 -60.66, 68.5 -62.11 M68.5 -62.11 C49.48 -44.86, 30.46 -27.62, 0 0 M68.5 -62.11 C46.64 -42.29, 24.78 -22.47, 0 0 M0 0 C0 0, 0 0, 0 0 M0 0 C0 0, 0 0, 0 0" stroke="#000000" stroke-width="1" fill="none"></path></g></g><mask></mask><g stroke-linecap="round" transform="translate(12.079600571405877 74.78878266627368) rotate(336.95839543869505 3.865485888410035 3.692419655722091)"><path d="M0 0 L7.73 0 L7.73 7.38 L0 7.38" stroke="none" stroke-width="0" fill="#f87762"></path><path d="M0 0 C2.72 0, 5.43 0, 7.73 0 M0 0 C1.66 0, 3.31 0, 7.73 0 M7.73 0 C7.73 2.9, 7.73 5.79, 7.73 7.38 M7.73 0 C7.73 2.77, 7.73 5.54, 7.73 7.38 M7.73 7.38 C5.07 7.38, 2.4 7.38, 0 7.38 M7.73 7.38 C5.27 7.38, 2.82 7.38, 0 7.38 M0 7.38 C0 4.73, 0 2.08, 0 0 M0 7.38 C0 4.78, 0 2.17, 0 0" stroke="transparent" stroke-width="1" fill="none"></path></g><g stroke-linecap="round"><g transform="translate(14.60355280959459 84.79028747739619) rotate(287.6844493410965 3.9979351407927197 -0.22716378127873327)" fill-rule="evenodd"><path d="M0 0 L0.98 1.53 L2.15 2.81 L3.81 4.22 L4.88 4.61 L8.91 1.09 L6.36 -0.73 L4.25 -3.55 L3.07 -5.06 L-0.91 -1.45" stroke="none" stroke-width="0" fill="#ced4da" fill-rule="evenodd"></path><path d="M0 0 C0.21 0.33, 0.42 0.66, 0.98 1.53 M0 0 C0.24 0.38, 0.49 0.76, 0.98 1.53 M0.98 1.53 C1.44 2.04, 1.91 2.55, 2.15 2.81 M0.98 1.53 C1.4 2, 1.83 2.46, 2.15 2.81 M2.15 2.81 C2.62 3.21, 3.09 3.61, 3.81 4.22 M2.15 2.81 C2.53 3.13, 2.91 3.46, 3.81 4.22 M3.81 4.22 C4.19 4.36, 4.56 4.5, 4.88 4.61 M3.81 4.22 C4.02 4.3, 4.24 4.38, 4.88 4.61 M4.88 4.61 C6.18 3.47, 7.48 2.34, 8.91 1.09 M4.88 4.61 C5.74 3.86, 6.6 3.11, 8.91 1.09 M8.91 1.09 C8.19 0.58, 7.47 0.06, 6.36 -0.73 M8.91 1.09 C8.18 0.57, 7.46 0.05, 6.36 -0.73 M6.36 -0.73 C5.63 -1.71, 4.89 -2.69, 4.25 -3.55 M6.36 -0.73 C5.68 -1.64, 5 -2.55, 4.25 -3.55 M4.25 -3.55 C4 -3.87, 3.75 -4.19, 3.07 -5.06 M4.25 -3.55 C3.98 -3.89, 3.71 -4.24, 3.07 -5.06 M3.07 -5.06 C1.53 -3.66, -0.01 -2.26, -0.91 -1.45 M3.07 -5.06 C1.89 -3.99, 0.71 -2.92, -0.91 -1.45 M-0.91 -1.45 C-0.6 -0.95, -0.28 -0.45, 0 0 M-0.91 -1.45 C-0.62 -0.99, -0.33 -0.53, 0 0" stroke="#000000" stroke-width="1" fill="none"></path></g></g><mask></mask><g stroke-linecap="round"><g transform="translate(77.28447954223782 85.03319354013291) rotate(287.6844493410965 -39.47782022444164 41.77304233051382)"><path d="M0 0 C1.32 1.42, 2.64 2.84, 6.2 6.66 M0 0 C1.34 1.44, 2.67 2.87, 6.2 6.66 M6.2 6.66 C-9.86 21.12, -25.92 35.59, -72.53 77.58 M6.2 6.66 C-14.09 24.93, -34.38 43.21, -72.53 77.58 M-72.53 77.58 C-77.17 79.77, -81.81 81.97, -85.15 83.55 M-72.53 77.58 C-75.5 78.98, -78.47 80.39, -85.15 83.55 M-85.15 83.55 C-83.21 79.59, -81.27 75.63, -78.96 70.92 M-85.15 83.55 C-82.7 78.54, -80.24 73.54, -78.96 70.92 M-78.96 70.92 C-58.34 52.4, -37.72 33.88, 0 0 M-78.96 70.92 C-51.96 46.68, -24.97 22.43, 0 0" stroke="#000000" stroke-width="1" fill="none"></path></g></g><mask></mask></svg>